<svg width="50" height="50" viewBox="0 0 50 50" fill="none" xmlns="http://www.w3.org/2000/svg">
<path d="M39.3893 8.59391H33.6411V9.69102C33.6408 9.91 33.5529 10.1199 33.3966 10.2748C33.2403 10.4296 33.0284 10.5167 32.8073 10.517H17.9739C17.7529 10.5167 17.541 10.4296 17.3846 10.2748C17.2283 10.1199 17.1404 9.91 17.1402 9.69102V8.59391H11.392C11.1304 8.59061 10.8708 8.63838 10.6278 8.73449C10.3849 8.83061 10.1635 8.97318 9.97617 9.15408C9.78887 9.33498 9.63938 9.55066 9.53623 9.78879C9.43308 10.0269 9.37829 10.2829 9.375 10.542V44.1455C9.37829 44.4046 9.43308 44.6606 9.53623 44.8987C9.63938 45.1368 9.78887 45.3525 9.97617 45.5334C10.1635 45.7143 10.3849 45.8569 10.6278 45.953C10.8708 46.0491 11.1304 46.0969 11.392 46.0936H39.3893C39.6508 46.0969 39.9105 46.0491 40.1534 45.953C40.3963 45.8569 40.6178 45.7143 40.8051 45.5334C40.9924 45.3525 41.1419 45.1368 41.245 44.8987C41.3482 44.6606 41.403 44.4046 41.4062 44.1455V10.542C41.403 10.2829 41.3482 10.0269 41.245 9.78879C41.1419 9.55066 40.9924 9.33498 40.8051 9.15408C40.6178 8.97318 40.3963 8.83061 40.1534 8.73449C39.9105 8.63838 39.6508 8.59061 39.3893 8.59391Z" stroke="#396DFD" stroke-width="2" stroke-miterlimit="10"/>
<path d="M33.3011 6.55436H28.0331V6.21939C28.0434 5.71048 27.8533 5.21331 27.4931 4.80722C27.1329 4.40114 26.6234 4.10955 26.046 3.97901C25.66 3.89315 25.2561 3.88314 24.8649 3.94973C24.4737 4.01632 24.1053 4.15778 23.7877 4.36342C23.4701 4.56906 23.2115 4.8335 23.0314 5.13677C22.8513 5.44004 22.7544 5.7742 22.7482 6.11403V6.55436H17.4801C17.1953 6.55436 16.9222 6.65075 16.7208 6.82232C16.5194 6.9939 16.4063 7.2266 16.4062 7.46924V9.24137C16.4062 9.48401 16.5194 9.71672 16.7208 9.88829C16.9222 10.0599 17.1953 10.1562 17.4801 10.1562H33.3011C33.5859 10.1562 33.8591 10.0599 34.0605 9.88829C34.2619 9.71672 34.375 9.48401 34.375 9.24137V7.46924C34.375 7.2266 34.2619 6.9939 34.0605 6.82232C33.8591 6.65075 33.5859 6.55436 33.3011 6.55436Z" stroke="#396DFD" stroke-width="2" stroke-miterlimit="10" stroke-linecap="round"/>
<path d="M18.75 17.9688H35.9375" stroke="#396DFD" stroke-width="2" stroke-miterlimit="10" stroke-linecap="round"/>
<path d="M12.5 16.7969L13.2812 17.9688L15.625 13.2812" stroke="#396DFD" stroke-width="2" stroke-miterlimit="10" stroke-linecap="round"/>
<path d="M18.75 25H35.9375" stroke="#396DFD" stroke-width="2" stroke-miterlimit="10" stroke-linecap="round"/>
<path d="M12.5 24.0234L13.2812 25L15.625 21.0938" stroke="#396DFD" stroke-width="2" stroke-miterlimit="10" stroke-linecap="round"/>
<path d="M18.75 32.0312H35.9375" stroke="#396DFD" stroke-width="2" stroke-miterlimit="10" stroke-linecap="round"/>
<path d="M12.5 31.25L13.2812 32.0312L15.625 28.9062" stroke="#396DFD" stroke-width="2" stroke-miterlimit="10" stroke-linecap="round"/>
<path d="M18.75 40.625H35.9375" stroke="#396DFD" stroke-width="2" stroke-miterlimit="10" stroke-linecap="round"/>
<path d="M12.5 39.6484L13.2812 40.625L15.625 36.7188" stroke="#396DFD" stroke-width="2" stroke-miterlimit="10" stroke-linecap="round"/>
</svg>
