<svg width="32" height="32" viewBox="0 0 32 32" fill="none" xmlns="http://www.w3.org/2000/svg">
<g clip-path="url(#clip0_11_214)">
<path d="M6.67958 22.6402L8.62242 26.8444C8.65015 26.9058 8.68421 26.964 8.72428 27.0181C9.51377 28.0901 10.8865 28.4841 12.0863 28.0863C12.3786 27.9894 12.6587 27.846 12.9196 27.6541C14.2506 26.6734 14.5369 24.7917 13.5559 23.4597L11.9653 21.2996L12.213 21.2174L20.832 22.4632C20.9888 22.485 21.1441 22.4704 21.2894 22.4222C21.4631 22.3646 21.6201 22.2599 21.7408 22.1156C21.9645 21.8497 22.034 21.4874 21.9248 21.158L20.6212 17.2265C22.1141 16.2606 22.8394 14.384 22.2546 12.6204C21.6699 10.8568 19.9671 9.7852 18.1929 9.90254L16.8894 5.971C16.7802 5.64164 16.5083 5.39359 16.1707 5.31273C15.8331 5.23187 15.4788 5.3325 15.2333 5.57718L9.06682 11.7253L5.49408 12.9098C2.87718 13.7775 1.45405 16.6124 2.32171 19.2293C2.97348 21.1951 4.73439 22.4865 6.67958 22.6402ZM11.9454 24.6459C12.2726 25.0894 12.178 25.716 11.7335 26.0436C11.3111 26.3553 10.7259 26.2839 10.3882 25.8975L8.75417 22.3643L9.96818 21.9617L11.9454 24.6459ZM20.3563 13.2498C20.5882 13.9493 20.4046 14.6824 19.949 15.199L18.8655 11.9309C19.5391 12.0721 20.1243 12.5502 20.3563 13.2498ZM19.5172 20.2516L12.8779 19.2924L10.7492 12.8721L15.5002 8.13621L19.5172 20.2516ZM6.12351 14.8082L8.97107 13.8641L10.8593 19.5592L8.01179 20.5033C6.44183 21.0239 4.74062 20.1699 4.22009 18.5999C3.69955 17.0299 4.55355 15.3287 6.12351 14.8082Z" />
<path d="M26.3657 12.311L28.2641 11.6816C28.789 11.5075 29.0723 10.9416 28.8986 10.4177C28.7248 9.89373 28.1596 9.60917 27.6347 9.7832L25.7363 10.4126C25.2114 10.5867 24.9281 11.1526 25.1018 11.6765C25.2755 12.2005 25.8408 12.485 26.3657 12.311Z" />
<path d="M24.7005 7.28691C24.9435 7.20634 25.1556 7.03275 25.2794 6.78629L26.1765 4.99914C26.4246 4.50495 26.2257 3.90507 25.7315 3.65699C25.2373 3.40891 24.6374 3.60781 24.3894 4.10199L23.4922 5.88915C23.2441 6.38333 23.443 6.98322 23.9372 7.2313C24.184 7.35597 24.4575 7.36747 24.7005 7.28691Z" />
<path d="M29.0559 18.1761C29.3024 18.2999 29.5762 18.3123 29.8192 18.2317C30.0622 18.1512 30.2744 17.9776 30.3981 17.7311C30.6462 17.2369 30.4473 16.6371 29.9531 16.389L28.1659 15.4918C27.6717 15.2438 27.0718 15.4427 26.8238 15.9368C26.5757 16.431 26.7746 17.0309 27.2688 17.279L29.0559 18.1761Z" />
</g>
</svg>
