<svg width="36" height="36" viewBox="0 0 36 36" xmlns="http://www.w3.org/2000/svg">
<path d="M3.46818 26.1213C3.05291 26.1213 2.6844 26.1213 2.31448 26.1213C1.88929 26.1128 1.70929 25.9526 1.70645 25.5232C1.69795 24.3203 1.69795 23.1165 1.70645 21.9118C1.70645 21.4611 1.88362 21.3038 2.34283 21.3009C2.9296 21.3009 3.51637 21.3009 4.13149 21.3009C3.8381 20.3698 3.99826 19.586 4.81322 19.046C5.09454 18.8408 5.43422 18.7312 5.78241 18.7332C6.1306 18.7353 6.46897 18.8489 6.74787 19.0573C7.52031 19.5973 7.73999 20.3542 7.40976 21.2995C7.81511 21.2995 8.18362 21.3208 8.54362 21.2854C8.63574 21.2769 8.76188 21.0969 8.78173 20.9792C8.94047 20.0792 9.07228 19.175 9.2211 18.2735C9.45637 16.835 10.2742 15.8301 11.5668 15.205C12.5589 14.7246 13.5595 14.2682 14.5687 13.826C14.8663 13.6956 14.9527 13.5255 14.9556 13.2095C14.9556 12.6425 14.9046 12.128 14.5828 11.622C14.2242 11.0551 14.1576 10.3861 14.1846 9.71575C14.2002 9.21544 14.2228 8.7137 14.2002 8.21481C14.1902 8.00646 14.0683 7.80378 13.9606 7.49197C14.9527 7.27937 15.9364 6.96898 16.937 6.88536C17.5904 6.8315 18.2509 6.98882 18.9468 6.88536C19.6044 6.79465 20.3216 7.06111 21.0005 7.21559C21.3162 7.31059 21.623 7.43294 21.9175 7.58126C21.875 7.92851 21.8211 8.22614 21.8041 8.52378C21.763 9.28063 21.763 10.0403 21.6921 10.7915C21.6659 11.1062 21.5568 11.4084 21.3761 11.6674C20.9721 12.2032 21.0246 12.8013 21.0586 13.3923C21.0796 13.4745 21.1182 13.5512 21.1718 13.6171C21.2254 13.6829 21.2927 13.7363 21.369 13.7735C22.2817 14.2158 23.1987 14.6523 24.1313 15.0491C25.7485 15.7465 26.6457 16.9625 26.8668 18.7002C26.9603 19.4386 27.1077 20.1699 27.1814 20.9083C27.214 21.2414 27.3444 21.2967 27.6392 21.2939C29.6036 21.2825 31.568 21.2939 33.531 21.2939C34.1561 21.2939 34.2864 21.4228 34.2879 22.0479C34.2879 23.1661 34.2879 24.2844 34.2879 25.4027C34.2879 25.9696 34.1461 26.1113 33.5792 26.1113H32.4992C32.4992 26.6272 32.4992 27.1191 32.4992 27.6123C32.4992 29.5597 32.5176 31.5085 32.5219 33.4559C32.5219 34.0994 32.3518 34.2694 31.7083 34.2694H4.27889C3.63826 34.2694 3.4696 34.098 3.4696 33.4502C3.4696 31.1721 3.4696 28.8935 3.4696 26.6145L3.46818 26.1213ZM33.2702 22.3597H2.74535V25.0696H33.2702V22.3597ZM17.4855 21.2754C17.4855 20.3117 17.399 19.3621 17.5068 18.4323C17.6485 17.1567 17.2942 16.1929 16.2312 15.4559C15.8939 15.2221 15.6444 14.7345 15.3 14.6735C14.9556 14.6126 14.5516 14.9471 14.1746 15.1087C14.057 15.1597 13.9408 15.2178 13.8246 15.2717C13.2279 15.5551 12.6283 15.8173 12.0373 16.1022C10.9361 16.6309 10.2954 17.4869 10.1494 18.7172C10.0502 19.5605 9.9085 20.4009 9.78094 21.2683L17.4855 21.2754ZM26.219 21.2754C26.0872 20.3783 25.9512 19.5335 25.8406 18.6846C25.6989 17.5507 25.1504 16.6932 24.1242 16.1872C23.074 15.6699 21.9983 15.1951 20.9409 14.6976C20.734 14.5998 20.6121 14.6551 20.4619 14.8039C19.895 15.3581 19.3153 15.8854 18.7611 16.4509C18.6156 16.6134 18.5305 16.8211 18.5202 17.0391C18.4989 18.3146 18.5088 19.5902 18.5102 20.8658C18.5102 21.0076 18.5216 21.1394 18.5287 21.291H20.7071C20.6334 20.908 20.5832 20.5208 20.5568 20.1317C20.5498 19.5137 20.6986 19.2728 21.3066 19.165C21.8906 19.0475 22.4893 19.0222 23.0811 19.0899C23.9768 19.2161 24.266 19.7546 24.0619 20.6702C24.0179 20.8701 23.9556 21.0643 23.8989 21.274L26.219 21.2754ZM15.2093 8.50394C15.2093 9.0978 15.1923 9.57969 15.2093 10.063C15.2915 11.9211 17.0065 13.1811 19.0857 12.4724C20.503 11.9863 21.2513 10.1154 20.7057 8.56488C18.9085 9.56977 17.0929 9.57402 15.2093 8.50394ZM18.0085 28.1764C19.3819 28.1764 20.7539 28.1764 22.1272 28.1764C22.5935 28.1764 22.8203 28.0006 22.8246 27.6605C22.8288 27.3203 22.6134 27.1517 22.1386 27.1517C19.3748 27.1517 16.6115 27.1517 13.8487 27.1517C13.4943 27.1517 13.2123 27.2239 13.1797 27.635C13.1527 27.9794 13.3894 28.1764 13.8458 28.1792C15.2334 28.1806 16.6209 28.1764 18.0085 28.1764ZM18.0085 32.2271H22.1372C22.6176 32.2271 22.8316 32.0669 22.8316 31.7183C22.8316 31.3696 22.612 31.2066 22.1372 31.2066C19.3847 31.2066 16.6318 31.2066 13.8784 31.2066C13.4036 31.2066 13.1839 31.3753 13.1853 31.7197C13.1868 32.0641 13.4022 32.2271 13.8798 32.2271H18.0085ZM8.66551 27.866C8.24031 27.9482 7.79952 28.0276 7.3559 28.1268C7.24382 28.1462 7.14183 28.2035 7.067 28.2892C6.99217 28.3749 6.94906 28.4837 6.94488 28.5973C6.74645 29.9069 7.70031 30.9274 8.60456 31.3965C8.64221 31.4095 8.68211 31.4147 8.72182 31.4118C8.76154 31.4089 8.80025 31.3979 8.83558 31.3795C9.77385 30.8494 10.4145 30.1039 10.4953 28.9871C10.5378 28.3904 10.4187 28.2189 9.84614 28.0729C9.47621 27.978 9.0907 27.9383 8.66551 27.866ZM27.3416 27.883C26.9617 27.9326 26.6173 27.9539 26.2842 28.0247C25.5827 28.182 25.4197 28.4683 25.526 29.1869C25.6748 30.1961 26.2857 30.8565 27.119 31.3526C27.1653 31.3779 27.2166 31.3929 27.2692 31.3963C27.3219 31.3997 27.3746 31.3916 27.4238 31.3724C28.3606 30.8466 29.0154 30.1139 29.0835 28.9871C29.1217 28.3521 29.0197 28.2076 28.4074 28.0545C28.0502 27.9694 27.6775 27.9368 27.3416 27.883ZM17.9872 30.1861C18.8376 30.1861 19.6795 30.1861 20.5257 30.1861C20.5941 30.1941 20.6635 30.1868 20.7288 30.1648C20.7941 30.1427 20.8537 30.1064 20.9033 30.0586C20.9529 30.0108 20.9913 29.9525 21.0157 29.8881C21.0401 29.8236 21.0499 29.7545 21.0444 29.6858C21.0572 29.3655 20.8587 29.2209 20.5696 29.1912C20.3868 29.1713 20.1983 29.1912 20.0126 29.1841C18.5698 29.1784 17.1265 29.1728 15.6827 29.1671C15.2093 29.1671 14.9414 29.3655 14.9499 29.6972C14.9584 30.0288 15.1852 30.1876 15.6586 30.189C16.4409 30.189 17.2091 30.189 17.983 30.189L17.9872 30.1861ZM18 15.755C18.6123 15.1696 19.1792 14.6055 19.7745 14.0726C20.0579 13.8203 20.1189 13.551 20.0197 13.1811C18.6661 13.8501 17.3197 13.8246 15.8471 13.1301C15.9576 13.4773 15.9661 13.7679 16.115 13.9238C16.7046 14.5432 17.3395 15.1214 18 15.755Z"/>
<path d="M22.8487 5.4C22.8387 5.57095 22.8198 5.74127 22.792 5.91023C22.6261 6.5863 22.4461 6.63874 21.7998 6.43606C21.0627 6.2206 20.3147 6.04414 19.5591 5.9074C19.2614 5.84645 19.0233 5.82378 18.8405 5.49779C18.4635 4.82315 17.5266 4.88976 17.1028 5.55874C16.9973 5.71233 16.8414 5.82414 16.662 5.8748C15.7507 6.10157 14.8195 6.28157 13.9181 6.51826C13.6743 6.58204 13.5553 6.55511 13.4305 6.35102C13.1471 5.87622 13.0521 5.37307 13.3271 4.88267C14.315 3.11811 15.7323 1.87228 17.8285 1.72913C19.3762 1.62425 20.6476 2.36551 21.6935 3.46819C22.0273 3.84053 22.3226 4.24557 22.5751 4.67716C22.6925 4.90736 22.7842 5.14976 22.8487 5.4Z"/>
<path d="M9.0822 15.8088C9.0822 15.4559 9.0822 15.1002 9.0822 14.7529C9.09212 13.7608 9.04677 12.7687 9.13181 11.7893C9.24236 10.5392 10.3365 9.61654 11.5937 9.60236C12.0954 9.60236 12.5957 9.60236 13.1315 9.60236C13.1669 9.99638 13.1528 10.3876 13.2477 10.7504C13.3892 11.2866 13.574 11.8103 13.8005 12.3165C14.0329 12.8339 14.0173 12.9543 13.4929 13.1953C12.7658 13.5298 12.043 13.8728 11.3116 14.1987C10.5463 14.5288 9.86733 15.0307 9.3274 15.6657C9.28314 15.7391 9.24927 15.8182 9.22677 15.9009L9.0822 15.8088Z" />
<path d="M22.8189 9.6137C23.4865 9.6137 24.0945 9.56551 24.6841 9.62362C25.8378 9.73701 26.7987 10.6526 26.8668 11.812C26.9447 13.1357 26.8852 14.4666 26.8852 15.7946C26.8568 15.7946 26.8157 15.8131 26.8072 15.8032C25.9568 14.6976 24.7124 14.1987 23.5006 13.6502C23.1222 13.4787 22.7537 13.2846 22.3668 13.1372C22.0181 13.0039 21.9728 12.7559 22.1216 12.4937C22.638 11.6255 22.881 10.622 22.8189 9.6137Z" />
<path d="M18 6.54378C17.6854 6.49984 17.4798 6.3326 17.5039 6.01511C17.5026 5.94696 17.5163 5.87935 17.544 5.81708C17.5718 5.7548 17.6129 5.69939 17.6644 5.65476C17.7159 5.61013 17.7766 5.57738 17.8422 5.55883C17.9078 5.54027 17.9767 5.53637 18.0439 5.5474C18.1083 5.5458 18.1723 5.55775 18.2317 5.58248C18.2912 5.60721 18.3448 5.64416 18.389 5.69094C18.4332 5.73772 18.4671 5.79328 18.4885 5.85401C18.5099 5.91474 18.5183 5.97929 18.5131 6.04346C18.5088 6.36236 18.2962 6.51968 18 6.54378Z" />
<path d="M13.1811 20.0098C12.909 20.0098 12.6383 20.0098 12.3661 20.0098C12.0728 19.9998 11.8843 19.8099 11.9225 19.5463C11.9509 19.362 12.1394 19.0701 12.2783 19.0587C12.8735 19.0113 13.4717 19.0113 14.0669 19.0587C14.1291 19.0624 14.1895 19.0809 14.243 19.1128C14.2965 19.1447 14.3415 19.189 14.3743 19.2419C14.4071 19.2949 14.4267 19.3549 14.4314 19.417C14.4361 19.4791 14.4258 19.5415 14.4014 19.5987C14.3573 19.6934 14.2943 19.7781 14.2163 19.8475C14.1384 19.917 14.047 19.9698 13.9479 20.0027C13.7083 20.0622 13.4362 20.0098 13.1811 20.0098Z"/>
<path d="M12.6638 16.8406C12.7384 16.7174 12.8344 16.6085 12.9472 16.5189C13.2668 16.3317 13.5982 16.1655 13.9394 16.0214C14.2228 15.8995 14.495 15.942 14.6239 16.2468C14.6564 16.3072 14.6759 16.3738 14.6809 16.4423C14.686 16.5107 14.6766 16.5795 14.6533 16.6441C14.63 16.7086 14.5934 16.7676 14.5459 16.8171C14.4983 16.8666 14.4409 16.9055 14.3773 16.9313C14.0457 17.0972 13.7211 17.2786 13.3852 17.4232C13.0493 17.5677 12.6524 17.3112 12.6638 16.8406Z" />
<path d="M21.0685 16.5643C21.06 16.1178 21.3931 15.8556 21.7432 15.9973C22.1298 16.1377 22.4962 16.3283 22.8331 16.5643C22.9748 16.6706 23.0868 17.0263 23.0145 17.1666C22.946 17.2552 22.856 17.3248 22.7531 17.3689C22.6502 17.4131 22.5377 17.4303 22.4263 17.4189C22.0238 17.2807 21.639 17.0956 21.2797 16.8676C21.1635 16.8024 21.1096 16.6266 21.0685 16.5643Z" />
</svg>
