<svg width="51" height="50" viewBox="0 0 51 50" fill="none" xmlns="http://www.w3.org/2000/svg">
<path d="M13.6634 11.2401C13.6634 9.57086 13.6686 7.90222 13.6791 6.23424C13.6791 4.65944 14.6968 3.62991 16.2716 3.62991C26.0354 3.62991 35.7992 3.62991 45.563 3.62991C47.1102 3.62991 48.122 4.65157 48.122 6.20669C48.122 12.9153 48.122 19.6253 48.122 26.3366C48.122 27.8504 47.0827 28.8957 45.5767 28.8957C44.4252 28.8957 43.2736 28.9055 42.122 28.8957C41.8189 28.8957 41.7283 28.9705 41.7283 29.2894C41.748 30.3917 41.7283 31.4921 41.7421 32.5945C41.7421 32.9744 41.6516 33.2815 41.311 33.4862C40.9705 33.6909 40.6397 33.5787 40.3268 33.374C39.4842 32.8031 38.6437 32.2303 37.7992 31.6634C37.6711 31.5354 37.5029 31.4555 37.3228 31.437C37.3228 32.0275 37.3228 32.6004 37.3228 33.1772C37.3228 34.6752 36.2716 35.7185 34.7638 35.7185C29.189 35.7185 23.6115 35.7146 18.0315 35.7067C17.4901 35.7067 17.0708 35.8917 16.5945 36.126C15.4882 36.6693 15.0433 37.4665 15.2736 38.6653C15.2874 38.8153 15.2874 38.9662 15.2736 39.1161C15.2736 39.815 15.5492 40.0846 16.2441 40.0846H23.5531C26.8996 40.0846 30.2638 40.0846 33.6181 40.0846C34.0003 40.0732 34.376 40.1858 34.689 40.4055C36.3228 41.5295 37.9724 42.6338 39.6102 43.752C39.7303 43.8346 39.8582 43.9094 40.063 44.0374V41.2205C40.063 40.2953 40.2893 40.0669 41.2067 40.0669H45.4016C46.2834 40.0669 46.5098 39.8346 46.5098 38.9311C46.5098 36.561 46.5098 34.1909 46.5098 31.8209C46.5098 31.1791 46.874 30.7933 47.3937 30.874C47.5981 30.8857 47.7895 30.9777 47.9263 31.13C48.0632 31.2823 48.1342 31.4825 48.124 31.687C48.124 34.2736 48.1555 36.8602 48.1122 39.4468C48.0925 40.6909 46.996 41.6673 45.7244 41.6831C44.5728 41.6988 43.4212 41.7146 42.2697 41.6831C41.7874 41.6653 41.6988 41.8327 41.7106 42.2736C41.7401 43.3071 41.7106 44.3425 41.7244 45.3779C41.7244 45.7716 41.6378 46.1043 41.2598 46.2992C40.8819 46.4941 40.5886 46.3287 40.2854 46.124C38.2441 44.7461 36.1949 43.3681 34.1575 41.9685C33.9021 41.7849 33.5939 41.6896 33.2795 41.6968C27.6365 41.6968 21.9934 41.6968 16.3504 41.6968C14.6673 41.6968 13.6771 40.7126 13.6732 39.0275C13.6732 38.75 13.6732 38.4705 13.6732 38.1063C12.6712 38.7815 11.7342 39.4094 10.8012 40.0413C10.4645 40.2697 10.1378 40.5138 9.7047 40.2756C9.27163 40.0374 9.25982 39.6535 9.26376 39.2382C9.26376 38.2185 9.24998 37.2008 9.27557 36.1831C9.27557 35.8051 9.20273 35.6673 8.78935 35.6772C7.65549 35.7087 6.51966 35.6909 5.3858 35.687C3.9114 35.6732 2.86218 34.6457 2.86218 33.1614C2.86218 26.4344 2.86218 19.7073 2.86218 12.9803C2.86218 11.4724 3.90155 10.4449 5.42124 10.4409C7.04197 10.4409 8.6614 10.4409 10.2795 10.4409C10.9173 10.4409 11.1161 10.6043 11.2953 11.2382C11.124 11.872 10.9173 12.0413 10.2834 12.0413H5.47439C4.74604 12.0413 4.46651 12.313 4.46651 13.0256C4.46651 19.7185 4.46651 26.4114 4.46651 33.1043C4.46651 33.7933 4.74998 34.0768 5.43502 34.0787C6.65352 34.0787 7.87203 34.0787 9.09053 34.0787C10.8799 34.0787 10.8779 34.0787 10.876 35.8976C10.876 36.5846 10.876 37.2756 10.876 38.063C11.1358 37.8917 11.3012 37.7854 11.4665 37.6693C13.0669 36.5846 14.6732 35.5039 16.2677 34.4114C16.5947 34.1825 16.9868 34.0652 17.3858 34.0768C23.1601 34.0846 28.9344 34.0846 34.7086 34.0768C35.437 34.0768 35.7126 33.8051 35.7165 33.0925C35.7165 32.6083 35.6535 32.1083 35.7303 31.6437C35.9094 30.5413 35.4803 29.8583 34.5059 29.3425C33.9744 29.063 33.498 28.8583 32.8858 28.8602C27.3622 28.8799 21.8405 28.872 16.3169 28.872C14.7027 28.872 13.687 27.8642 13.685 26.2598C13.685 24.7244 13.685 23.1896 13.685 21.6555C13.6771 18.1831 13.6699 14.7113 13.6634 11.2401ZM40.1181 31.2421C40.1181 30.1968 40.1181 29.2736 40.1181 28.3327C40.1181 27.5256 40.3838 27.2657 41.2067 27.2657H45.5118C46.2618 27.2657 46.5275 26.998 46.5275 26.2382V6.35629C46.5275 5.46062 46.2992 5.23228 45.4075 5.23228H16.4153C15.5157 5.23228 15.2815 5.46062 15.2815 6.34251V26.1811C15.2815 27.0315 15.5275 27.2756 16.3838 27.2756C21.5571 27.2756 26.7323 27.3366 31.9055 27.2401C33.5669 27.2087 34.933 27.5787 36.2362 28.6004C37.4291 29.5275 38.7539 30.315 40.1181 31.2421Z" fill="#396DFD"/>
<path d="M31.1063 12.4429H22.8543C22.7044 12.4522 22.554 12.4456 22.4055 12.4232C22.322 12.4087 22.2461 12.3656 22.1908 12.3013C22.1355 12.2371 22.1043 12.1556 22.1023 12.0709C22.0928 11.9781 22.1185 11.8851 22.1743 11.8104C22.2301 11.7357 22.3119 11.6846 22.4035 11.6673C22.551 11.6417 22.701 11.6337 22.8504 11.6437H39.3051C39.4548 11.6358 39.6049 11.6397 39.7539 11.6555C39.8464 11.6703 39.9306 11.7175 39.9914 11.7888C40.0522 11.86 40.0856 11.9506 40.0856 12.0443C40.0856 12.138 40.0522 12.2285 39.9914 12.2998C39.9306 12.3711 39.8464 12.4183 39.7539 12.4331C39.6231 12.4466 39.4916 12.4505 39.3602 12.4449L31.1063 12.4429Z" fill="#396DFD"/>
<path d="M31.1004 15.6476H39.3524C39.4837 15.641 39.6154 15.645 39.7461 15.6594C39.7964 15.6627 39.8455 15.6759 39.8906 15.6983C39.9358 15.7207 39.976 15.7519 40.009 15.79C40.042 15.8281 40.067 15.8724 40.0827 15.9202C40.0984 15.9681 40.1044 16.0187 40.1004 16.0689C40.0992 16.1625 40.0629 16.2522 39.9988 16.3203C39.9346 16.3885 39.8473 16.4301 39.7539 16.437C39.6232 16.4505 39.4916 16.4545 39.3602 16.4488H22.8563C22.7252 16.4575 22.5937 16.4575 22.4626 16.4488C22.3582 16.4488 22.2581 16.4073 22.1842 16.3335C22.1104 16.2597 22.0689 16.1595 22.0689 16.0551C22.0689 15.9507 22.1104 15.8506 22.1842 15.7767C22.2581 15.7029 22.3582 15.6614 22.4626 15.6614C22.5931 15.6443 22.7249 15.6397 22.8563 15.6476H31.1004Z" fill="#396DFD"/>
<path d="M31.1043 20.0551H39.3582C39.5076 20.0441 39.6577 20.052 39.8051 20.0787C39.8869 20.1026 39.9587 20.1523 40.0098 20.2205C40.0609 20.2886 40.0886 20.3715 40.0886 20.4567C40.0886 20.5419 40.0609 20.6248 40.0098 20.6929C39.9587 20.7611 39.8869 20.8108 39.8051 20.8346C39.6573 20.857 39.5075 20.8636 39.3582 20.8543C33.8714 20.8543 28.3858 20.8543 22.9016 20.8543C22.5689 20.8543 22.0984 20.9587 22.1142 20.4311C22.1319 19.9527 22.5807 20.059 22.9016 20.059C25.6365 20.0538 28.3707 20.0525 31.1043 20.0551Z" fill="#396DFD"/>
</svg>
