<svg width="64" height="64" viewBox="0 0 64 64" fill="none" xmlns="http://www.w3.org/2000/svg">
<path d="M10.6667 56C9.19999 56 7.94488 55.4782 6.90133 54.4347C5.856 53.3894 5.33333 52.1334 5.33333 50.6667V21.3333C5.33333 19.8667 5.856 18.6116 6.90133 17.568C7.94488 16.5227 9.19999 16 10.6667 16H21.3333V10.6667C21.3333 9.20001 21.856 7.94401 22.9013 6.89868C23.9449 5.85512 25.2 5.33334 26.6667 5.33334H37.3333C38.8 5.33334 40.056 5.85512 41.1013 6.89868C42.1449 7.94401 42.6667 9.20001 42.6667 10.6667V16H53.3333C54.8 16 56.056 16.5227 57.1013 17.568C58.1449 18.6116 58.6667 19.8667 58.6667 21.3333V50.6667C58.6667 52.1334 58.1449 53.3894 57.1013 54.4347C56.056 55.4782 54.8 56 53.3333 56H10.6667ZM26.6667 16H37.3333V10.6667H26.6667V16ZM53.3333 40H40V45.3333H24V40H10.6667V50.6667H53.3333V40ZM29.3333 40H34.6667V34.6667H29.3333V40ZM10.6667 34.6667H24V29.3333H40V34.6667H53.3333V21.3333H10.6667V34.6667Z" fill="#FFFCFC"/>
</svg>
