<svg width="36" height="36" viewBox="0 0 36 36" fill="none" xmlns="http://www.w3.org/2000/svg">
<path d="M18 16.543C20.5795 16.543 23.1591 16.543 25.7372 16.5345C26.0405 16.5345 26.1128 16.6238 26.0901 16.903C26.0731 17.2103 26.0731 17.5183 26.0901 17.8257C26.0901 17.9773 26.049 18.0369 25.8945 18.0241C25.74 18.0113 25.611 18.0241 25.4806 18.0241C24.9832 18.0241 24.9832 18.0241 24.9534 18.5315C24.8202 20.7765 24.6912 23.0216 24.5537 25.2652C24.3907 27.9128 24.2178 30.5589 24.0591 33.2022C24.0477 33.3921 23.9825 33.4233 23.8139 33.4233C19.9399 33.4233 16.0658 33.4233 12.1918 33.4233C11.9877 33.4233 11.9565 33.3567 11.9452 33.171C11.8035 30.9033 11.6617 28.6356 11.52 26.3679C11.4038 24.4843 11.2961 22.5992 11.1827 20.7142C11.1331 19.8992 11.075 19.0843 11.0296 18.2679C11.0183 18.0723 10.9573 18.0014 10.7461 18.0057C10.4769 18.0128 10.1154 18.1332 9.95954 17.9504C9.82631 17.7945 9.91843 17.4444 9.91702 17.1808C9.91702 16.5345 9.91702 16.5345 10.5491 16.5345L18 16.543Z" />
<path d="M9.39827 16.3587C9.19781 16.295 9.02278 16.1693 8.89846 15.9996C8.77414 15.8299 8.70696 15.6251 8.70662 15.4148C8.70911 15.2017 8.77708 14.9945 8.90131 14.8213C9.02555 14.6482 9.20003 14.5174 9.40111 14.4468C10.1239 14.1817 10.8496 13.9238 11.5809 13.6843C11.701 13.6585 11.8102 13.5964 11.8936 13.5064C11.9771 13.4163 12.0307 13.3028 12.0472 13.1811C12.222 12.2988 12.5584 11.4565 13.0394 10.6965C13.7296 9.65339 14.6509 9.04535 15.9534 9.10488C16.638 9.13606 16.6295 9.10488 16.5203 9.79087C16.3857 10.6937 16.2822 11.6008 16.4112 12.515C16.4665 12.9033 16.5345 13.2917 16.8449 13.578C16.8973 13.6276 16.9569 13.6998 17.032 13.6772C17.1071 13.6545 17.0958 13.5539 17.1057 13.483C17.2162 12.6439 17.3282 11.8035 17.4331 10.9644C17.4572 10.7787 17.4997 10.6809 17.7165 10.7518C17.9005 10.8131 18.0995 10.8131 18.2835 10.7518C18.4833 10.688 18.5386 10.7617 18.5669 10.9417C18.6732 11.7709 18.7852 12.6 18.8958 13.4291C18.9085 13.517 18.866 13.6474 18.9808 13.6757C19.0956 13.7041 19.148 13.5964 19.2118 13.534C19.4769 13.2506 19.5435 12.8792 19.5931 12.5121C19.7348 11.4789 19.5931 10.4584 19.4301 9.44221C19.3847 9.15024 19.4584 9.12756 19.7135 9.10913C20.9409 9.02268 21.9713 9.36709 22.7353 10.3748C23.1023 10.8665 23.395 11.4095 23.6041 11.9863C23.7705 12.4196 23.9 12.8663 23.991 13.3214C24.0017 13.398 24.0355 13.4694 24.0879 13.5262C24.1404 13.5829 24.2089 13.6223 24.2844 13.6389C25.0639 13.9011 25.8435 14.1761 26.6102 14.4581C26.808 14.5253 26.98 14.6524 27.1022 14.8219C27.2243 14.9913 27.2907 15.1946 27.292 15.4035C27.3203 15.8117 27.0709 16.166 26.6173 16.3814C26.691 15.9761 26.4161 16.0157 26.1921 16.0455C24.9463 16.2128 23.8564 15.6784 22.7409 15.2773C22.5805 15.2182 22.4392 15.1163 22.3326 14.9826C22.2259 14.849 22.1578 14.6886 22.1358 14.5191C21.994 13.8104 21.8636 13.1131 21.5235 12.3789C21.5164 12.5405 21.5079 12.6255 21.5079 12.7106C21.5079 13.7296 21.5079 14.7487 21.5079 15.7663C21.5079 15.9902 21.4498 16.0498 21.2244 16.0498C19.0805 16.0413 16.9361 16.0413 14.7912 16.0498C14.563 16.0498 14.4836 16.0072 14.4879 15.7592C14.5049 14.7671 14.4879 13.7636 14.4879 12.7658V12.4498C14.1887 13.0053 13.9964 13.612 13.9209 14.2384C13.8373 14.828 13.5638 15.2036 12.9841 15.3808C12.4299 15.5494 11.8857 15.755 11.3428 15.9576C11.1092 16.025 10.8653 16.05 10.6228 16.0313C10.3394 16.0313 10.0488 16.0441 9.76252 16.0313C9.53575 16.0157 9.32741 16.0157 9.39827 16.3587Z" />
<path d="M4.4518 28.4414C3.94015 27.8745 3.45968 27.3402 2.97779 26.8016C2.83606 26.6372 2.91684 26.4345 2.93102 26.2517C3.00188 25.3006 3.08551 24.3496 3.16204 23.3986C3.17469 23.2657 3.15775 23.1316 3.11243 23.006L2.58944 24.1838C2.30598 23.9117 2.03669 23.648 1.76031 23.3887C1.67385 23.3065 1.70362 23.2172 1.71779 23.1236C2.07212 20.7369 2.42692 18.3496 2.7822 15.9619C3.09259 13.8898 3.41007 11.8176 3.72047 9.74551C3.91606 8.44535 4.10929 7.14709 4.30015 5.85071C4.32275 5.77166 4.3206 5.68759 4.294 5.60981C4.26739 5.53202 4.2176 5.46424 4.15133 5.41559C4.08331 5.36366 4.02772 5.29722 3.98863 5.22109C3.94953 5.14497 3.9279 5.06108 3.92532 4.97554C3.92274 4.89 3.93928 4.80497 3.97371 4.72663C4.00815 4.64828 4.05963 4.57861 4.1244 4.52268C4.18326 4.46104 4.25444 4.4125 4.33331 4.38022C4.41218 4.34794 4.49697 4.33263 4.58215 4.33531C4.66733 4.33798 4.75099 4.35857 4.82768 4.39574C4.90437 4.43291 4.97236 4.48582 5.02724 4.55102C5.08732 4.612 5.13327 4.68545 5.16181 4.76616C5.19036 4.84687 5.20081 4.93286 5.19243 5.01806C5.18404 5.10326 5.15703 5.18557 5.11329 5.25916C5.06956 5.33276 5.01018 5.39584 4.93936 5.44394C4.87235 5.47901 4.81888 5.53534 4.78733 5.60408C4.75578 5.67283 4.74793 5.7501 4.76503 5.82378C4.95401 7.14661 5.13873 8.46945 5.31921 9.79228C5.52755 11.2677 5.71039 12.7474 5.91165 14.2271C6.11291 15.7068 6.32267 17.1624 6.52251 18.6321C6.72661 20.1317 6.92078 21.634 7.12488 23.1335C7.14475 23.2473 7.12631 23.3645 7.07244 23.4666C6.20362 25.1093 5.33905 26.7548 4.4518 28.4414Z" />
<path d="M31.5935 28.4187C31.1031 27.8773 30.6283 27.3487 30.1493 26.8243C30.1184 26.7892 30.0955 26.7478 30.0823 26.703C30.0691 26.6582 30.0658 26.6111 30.0728 26.5649C30.128 25.4735 30.2372 24.3865 30.3449 23.305C30.3627 23.1689 30.353 23.0306 30.3165 22.8983C30.1493 23.2795 29.9764 23.6594 29.8191 24.0449C29.7553 24.1994 29.7085 24.2249 29.5909 24.0917C29.3924 23.8706 29.1874 23.6556 28.9757 23.4468C28.9341 23.4076 28.9035 23.3582 28.8871 23.3034C28.8706 23.2487 28.869 23.1906 28.8822 23.135C29.0466 22.0465 29.1997 20.9565 29.3613 19.8751C29.5838 18.3784 29.8134 16.8817 30.0387 15.385C30.2901 13.7041 30.54 12.0246 30.7885 10.3465C31.0195 8.79591 31.2449 7.24677 31.4816 5.69764C31.4986 5.57717 31.4546 5.53748 31.3753 5.47228C31.0521 5.21008 31.0096 4.80047 31.2647 4.52976C31.3248 4.46609 31.3976 4.41576 31.4784 4.38201C31.5591 4.34826 31.6461 4.33186 31.7336 4.33386C31.8211 4.33587 31.9073 4.35623 31.9864 4.39364C32.0656 4.43105 32.136 4.48467 32.1931 4.55102C32.4496 4.85433 32.3858 5.24693 32.0145 5.50205C31.9741 5.52223 31.9424 5.55621 31.925 5.59782C31.9075 5.63943 31.9056 5.68591 31.9195 5.72882C32.2474 8.10047 32.5724 10.4712 32.8946 12.8409C33.1597 14.7912 33.4148 16.7443 33.6798 18.6959C33.8783 20.1643 34.0814 21.6321 34.2893 23.0995C34.3142 23.2124 34.2997 23.3305 34.2482 23.434C33.3836 25.0687 32.5209 26.7028 31.6602 28.3365C31.6403 28.3658 31.618 28.3933 31.5935 28.4187Z" />
<path d="M18.0113 8.38913C17.4348 8.39026 16.8709 8.22034 16.391 7.90089C15.9111 7.58144 15.5367 7.12681 15.3152 6.59453C15.0938 6.06224 15.0352 5.47623 15.1469 4.91063C15.2585 4.34503 15.5355 3.82527 15.9427 3.41711C16.3498 3.00896 16.8689 2.73075 17.4342 2.61769C17.9995 2.50463 18.5857 2.56181 19.1185 2.78198C19.6513 3.00215 20.1069 3.37542 20.4275 3.85456C20.7481 4.3337 20.9194 4.89718 20.9197 5.4737C20.9123 6.24342 20.6038 6.97964 20.0601 7.5246C19.5165 8.06956 18.781 8.3799 18.0113 8.38913Z" />
<path d="M4.22504 28.6937L4.49433 29.075L4.88693 28.3663L4.93937 28.3762V28.7079C4.93937 29.9381 4.93937 31.1683 4.93937 32.3929C4.93937 32.6225 5.00315 32.6764 5.22283 32.665C5.58283 32.6466 5.94425 32.665 6.30425 32.658C6.43748 32.658 6.48283 32.6877 6.48992 32.8323C6.5211 33.4304 6.52819 33.4304 5.93716 33.4304C4.91811 33.4304 3.90047 33.4304 2.88283 33.4304C2.67165 33.4304 2.58803 33.3935 2.59937 33.1583C2.61496 32.6551 2.59937 32.6551 3.09401 32.6551C3.32724 32.6431 3.56094 32.6431 3.79417 32.6551C4.08897 32.6877 4.18819 32.6083 4.1811 32.2866C4.15842 31.1953 4.1726 30.1025 4.1726 29.0112V28.7065L4.22504 28.6937Z"/>
<path d="M31.3228 28.6299L31.6842 29.0296L32.0939 28.2983V28.6894C32.0939 29.9296 32.0939 31.1698 32.0939 32.4099C32.0939 32.6154 32.1435 32.6849 32.3546 32.675C32.7146 32.6565 33.0761 32.675 33.4361 32.665C33.6217 32.658 33.6628 32.7246 33.6642 32.8989C33.6642 33.4389 33.677 33.4389 33.1413 33.4389C32.1137 33.4389 31.0847 33.4389 30.0572 33.4389C29.8417 33.4389 29.7737 33.3964 29.7737 33.1654C29.7893 32.6636 29.7737 32.6636 30.2669 32.6636C30.5433 32.6636 30.8197 32.648 31.0932 32.6636C31.3016 32.6778 31.3342 32.5998 31.3328 32.4128C31.3129 31.1811 31.3228 29.9409 31.3228 28.6299Z" />
<path d="M18.0085 9.09638C18.1672 9.10913 18.4337 9.07228 18.4606 9.14173C18.5785 9.4211 18.6618 9.71382 18.7087 10.0134C18.7455 10.209 18.3969 10.389 18.0128 10.3932C17.6287 10.3975 17.263 10.2146 17.2942 10.0318C17.3317 9.72975 17.4114 9.43444 17.5309 9.15449C17.5961 9.01984 17.8455 9.14173 18.0085 9.09638Z" />
</svg>
