<svg width="36" height="36" viewBox="0 0 36 36" xmlns="http://www.w3.org/2000/svg">
<path d="M3.94299 34.2992V19.7306H32.0655V34.2992H3.94299ZM6.10441 33.2178H12.5943C12.5943 31.9564 12.5943 30.7176 12.5943 29.4789C12.5911 29.4227 12.5816 29.3671 12.566 29.3131C12.3548 28.4003 11.7468 27.934 10.8425 27.805C11.7383 26.5294 11.7269 25.4169 10.8156 24.5962C10.4152 24.2326 9.89376 24.0311 9.35291 24.0311C8.81207 24.0311 8.29061 24.2326 7.89024 24.5962C6.97606 25.4112 6.96331 26.5394 7.85764 27.798C7.72583 27.8277 7.59543 27.8532 7.46788 27.8858C6.72945 28.0757 6.13701 28.7192 6.11575 29.4746C6.0789 30.7148 6.10441 31.955 6.10441 33.2178ZM21.2584 33.2277C21.2584 31.9592 21.2839 30.7219 21.2499 29.4846C21.2287 28.7277 20.6391 28.0828 19.9035 27.8901C19.7702 27.8561 19.637 27.8263 19.4896 27.7909C20.5753 26.6202 20.2224 25.3233 19.5293 24.6472C19.1381 24.2653 18.617 24.0454 18.0705 24.0318C17.5239 24.0181 16.9924 24.2116 16.5827 24.5735C15.6387 25.3814 15.6146 26.5578 16.5217 27.7965C16.4922 27.8086 16.4619 27.8185 16.431 27.8263C15.334 28.0276 14.7643 28.705 14.7628 29.8106V33.2277H21.2584ZM28.1509 27.798C29.2847 26.5635 28.8454 25.2624 28.1721 24.626C27.775 24.2507 27.2511 24.0388 26.7048 24.0325C26.1584 24.0262 25.6297 24.2259 25.2241 24.592C24.2972 25.4112 24.2816 26.5918 25.1915 27.8022L25.0654 27.8291C23.9995 28.029 23.4284 28.7178 23.4284 29.8134C23.4284 30.4002 23.4284 30.9865 23.4284 31.5723V33.2277H29.9296V29.9268C29.9282 28.6739 29.4038 28.0389 28.1509 27.798ZM7.19717 22.9266H9.32315V20.8006H7.19717V22.9266ZM12.0713 22.9266H14.1973V20.8006H12.0713V22.9266ZM19.0913 20.8006H16.9526V22.9266H19.0913V20.8006ZM21.8239 20.7865V22.9252H23.9499V20.7893L21.8239 20.7865ZM26.6995 20.7978V22.9238H28.8255V20.7978H26.6995Z"/>
<path d="M33.6019 18.6024H2.33858C2.74251 18.2353 3.09401 17.9121 3.44834 17.5932C4.80519 16.3705 6.1644 15.1502 7.52598 13.9323C7.65992 13.8198 7.82743 13.755 8.0022 13.748C9.5811 13.748 11.16 13.748 12.7403 13.748H13.1811C13.1811 12.7417 13.1598 11.7638 13.1924 10.7872C13.2076 10.3722 13.285 9.96181 13.422 9.56976C13.713 8.73372 14.2576 8.00933 14.9799 7.49763C15.7023 6.98593 16.5663 6.71242 17.4515 6.71527C18.1687 6.71527 18.9028 6.71527 19.6002 6.85701C21.4568 7.24394 22.8132 8.93764 22.86 10.8354C22.8813 11.7921 22.86 12.7488 22.86 13.748H23.2753C24.8655 13.748 26.4557 13.748 28.046 13.748C28.1996 13.7464 28.3493 13.7963 28.4712 13.8898C30.1455 15.3836 31.8146 16.8836 33.4786 18.3898C33.5397 18.438 33.6041 18.4821 33.6713 18.5216L33.6019 18.6024ZM15.2887 13.731V11.0551H14.2455V13.731H15.2887ZM17.4557 13.731V11.0551H16.4126V13.731H17.4557ZM19.6214 13.731V11.0551H18.5783V13.731H19.6214ZM21.7899 11.0551H20.7468V13.7282H21.7899V11.0551Z" />
<path d="M21.8027 1.70079C21.8027 2.38252 21.8027 3.03449 21.8027 3.68504C21.8027 3.90614 21.6524 3.89764 21.5192 3.92598C20.5497 4.14071 19.5502 4.18484 18.5655 4.05638V6.13984H17.5039V1.70079C18.9152 2.05322 20.3914 2.05322 21.8027 1.70079Z" />
<path d="M9.35433 32.1534C8.98866 31.4206 8.65275 30.7545 8.32677 30.0841C8.31594 30.0498 8.31261 30.0136 8.31701 29.9779C8.32141 29.9422 8.33344 29.9078 8.35228 29.8772C8.66976 29.3882 8.99575 28.9063 9.35433 28.3706C9.71716 28.9148 10.063 29.4222 10.3918 29.9296C10.4013 29.954 10.4054 29.9802 10.4039 30.0064C10.4024 30.0325 10.3954 30.058 10.3833 30.0813C10.0502 30.7559 9.71575 31.4206 9.35433 32.1534Z" />
<path d="M18.0142 28.3691C18.3728 28.9049 18.6973 29.3882 19.0148 29.8757C19.0335 29.9062 19.0456 29.9402 19.0502 29.9756C19.0549 30.011 19.052 30.047 19.0417 30.0813C18.7157 30.7531 18.3798 31.4192 18.0142 32.1534C17.6485 31.422 17.3126 30.7559 16.9866 30.0855C16.9757 30.0512 16.9723 30.015 16.9767 29.9793C16.9811 29.9435 16.9932 29.9092 17.0121 29.8786C17.3282 29.3896 17.6542 28.9134 18.0142 28.3691Z" />
<path d="M26.6769 32.1534C26.3126 31.4235 25.9824 30.7658 25.6592 30.1039C25.6444 30.0709 25.6368 30.0352 25.6368 29.9991C25.6368 29.9629 25.6444 29.9272 25.6592 29.8942C25.9809 29.3981 26.3126 28.9091 26.6726 28.3706C27.034 28.912 27.3713 29.4109 27.6973 29.9154C27.7099 29.9497 27.7152 29.9861 27.7128 30.0225C27.7103 30.0589 27.7002 30.0944 27.6832 30.1266C27.3685 30.7786 27.0397 31.4277 26.6769 32.1534Z"/>
</svg>
