<svg width="51" height="50" viewBox="0 0 51 50" fill="none" xmlns="http://www.w3.org/2000/svg">
<path d="M40.7067 25.0217C40.7067 31.7553 40.7067 38.4902 40.7067 45.2264C40.7067 46.8012 39.874 47.6378 38.3209 47.6378H12.6791C11.1437 47.6378 10.2933 46.7933 10.2933 45.2756C10.2933 31.7585 10.2933 18.2415 10.2933 4.72442C10.2933 3.2008 11.1417 2.36221 12.6791 2.36221H38.3189C39.876 2.36221 40.7067 3.2008 40.7067 4.77166C40.7093 11.5223 40.7093 18.2723 40.7067 25.0217ZM11.7205 7.98229V42.0177C14.0295 42.5098 15.4134 43.9114 15.9075 46.2028H35.1063C35.2694 45.1596 35.7587 44.1948 36.5039 43.4469C37.258 42.6955 38.2288 42.1998 39.2795 42.0295V7.96064C38.2321 7.79791 37.2635 7.30639 36.5138 6.5571C35.7696 5.80708 35.2776 4.84379 35.1063 3.80119H15.9075C15.4016 6.10237 14.0138 7.49017 11.7205 7.98229ZM14.437 3.7756C13.7343 3.7756 13.0591 3.76379 12.3858 3.7756C12.3034 3.77028 12.2207 3.78138 12.1426 3.80827C12.0644 3.83516 11.9924 3.87729 11.9307 3.93223C11.869 3.98717 11.8188 4.05381 11.7831 4.1283C11.7473 4.20279 11.7267 4.28364 11.7224 4.36615C11.6811 5.07481 11.7106 5.78741 11.7106 6.50591C12.3867 6.37636 13.0084 6.04688 13.4951 5.56011C13.9819 5.07334 14.3114 4.45169 14.4409 3.7756H14.437ZM39.2933 6.49607C39.2933 5.81891 39.3051 5.14568 39.2933 4.47245C39.2992 4.38958 39.2885 4.30637 39.2619 4.22767C39.2353 4.14897 39.1932 4.07636 39.1383 4.01406C39.0833 3.95177 39.0165 3.90103 38.9417 3.86483C38.8669 3.82862 38.7857 3.80765 38.7028 3.80316C37.9941 3.76182 37.2795 3.79135 36.561 3.79135C36.813 5.15946 38.0138 6.3445 39.2933 6.49607ZM14.4272 46.2185C14.306 45.5443 13.982 44.9231 13.4983 44.438C13.0146 43.9529 12.3944 43.627 11.7205 43.5039C11.7205 44.2087 11.6988 44.9095 11.7205 45.6102C11.725 45.7675 11.7903 45.9168 11.9027 46.0269C12.015 46.137 12.1656 46.1993 12.3228 46.2008C13.0217 46.2402 13.7224 46.2185 14.4272 46.2185ZM36.5787 46.2185C37.2559 46.2185 37.9311 46.2284 38.6043 46.2185C38.7698 46.2299 38.933 46.1751 39.0581 46.0662C39.1833 45.9573 39.2601 45.8033 39.2717 45.6378C39.313 44.9291 39.2835 44.2146 39.2835 43.4961C37.9016 43.7441 36.7205 44.9449 36.5787 46.2244V46.2185Z" fill="#396DFD"/>
<path d="M35.0472 20.4055C35.0464 22.2962 34.4844 24.1441 33.4324 25.715C32.3803 27.2859 30.8856 28.5092 29.1377 29.2298C27.3898 29.9504 25.4672 30.136 23.6138 29.7629C21.7603 29.3898 20.0592 28.475 18.7262 27.1342C17.3932 25.7934 16.4882 24.0871 16.1258 22.2315C15.7635 20.3759 15.9601 18.4545 16.6909 16.7107C17.4216 14.967 18.6535 13.4794 20.2305 12.4365C21.8075 11.3936 23.6586 10.8422 25.5492 10.8524C28.0731 10.8675 30.4886 11.8805 32.2681 13.6704C34.0477 15.4603 35.0468 17.8815 35.0472 20.4055ZM22.9685 22.1417C23.0282 21.8818 23.0283 21.6116 22.969 21.3516C22.9097 21.0915 22.7925 20.8482 22.626 20.6398C22.3344 20.2538 22.1418 19.8024 22.065 19.3248C21.9775 18.625 21.9453 17.9194 21.9685 17.2146C21.9695 16.3297 22.3015 15.4772 22.8993 14.8247C23.4971 14.1723 24.3174 13.7672 25.1988 13.689C26.0731 13.6087 26.9454 13.8617 27.6411 14.3971C28.3368 14.9326 28.8046 15.7111 28.9508 16.5768C29.03 17.2482 29.057 17.9248 29.0315 18.6004C29.0703 19.3899 28.8062 20.1644 28.2933 20.7658C27.8996 21.2087 27.9941 21.6654 28.0059 22.1555C28.9245 22.1683 29.8112 22.494 30.5197 23.0787C31.2152 23.6828 31.6862 24.5041 31.8563 25.4095C33.1344 23.826 33.764 21.8164 33.6179 19.7867C33.4717 17.757 32.5607 15.8584 31.0689 14.4744C27.6654 11.3268 22.4685 11.5748 19.4685 14.9331C16.4213 18.3484 17.0354 23.0315 19.1437 25.3662C19.6457 23.3819 20.9213 22.315 22.9685 22.1417ZM23.376 17.9134C23.376 18.1654 23.376 18.4154 23.376 18.6654C23.3879 19.1779 23.5824 19.6694 23.9246 20.0512C24.2667 20.4331 24.7339 20.6802 25.2421 20.748C25.7506 20.8177 26.2667 20.6948 26.6892 20.4034C27.1117 20.112 27.41 19.6733 27.5256 19.1732C27.6203 18.5216 27.6507 17.8623 27.6161 17.2047C27.6135 16.6425 27.3877 16.1042 26.9882 15.7085C26.5888 15.3127 26.0485 15.0919 25.4862 15.0945C24.9239 15.0971 24.3857 15.323 23.99 15.7224C23.5942 16.1219 23.3734 16.6621 23.376 17.2244C23.372 17.441 23.376 17.6772 23.376 17.9134ZM24.7933 28.4921C24.7933 27.8268 24.7461 27.2047 24.8051 26.5945C24.8839 25.7815 24.7087 25.1004 24.0709 24.5551C23.8791 24.3926 23.7161 24.1989 23.5886 23.9823C23.3465 23.5532 22.9685 23.5039 22.5709 23.6162C22.2033 23.7102 21.8531 23.8624 21.5335 24.0669C20.6555 24.6575 20.4449 25.5551 20.5492 26.5492C20.5663 26.728 20.6499 26.8938 20.7835 27.0138C21.9563 27.8702 23.3452 28.3815 24.7933 28.4902V28.4921ZM26.2087 28.4921C27.6648 28.3795 29.0611 27.865 30.2421 27.0059C30.3389 26.9462 30.4093 26.8519 30.439 26.7421C30.4823 25.8996 30.5059 25.0591 29.8484 24.3799C29.2894 23.815 28.5098 23.2973 27.8642 23.6457C27.1245 24.0644 26.56 24.7351 26.2736 25.5354C26 26.439 26.2087 27.4843 26.2087 28.4882V28.4921ZM25.4882 24.124C25.9134 23.3858 26.813 23.0236 26.5512 22.1063H24.4409C24.1693 23.0177 25.0945 23.3661 25.4882 24.1201V24.124Z" fill="#396DFD"/>
<path d="M31.3386 37.0256C30.8543 37.0256 30.4291 37.0256 30.0059 37.0256C29.4902 37.0157 29.2185 36.748 29.2185 36.2283C29.2185 35.3438 29.2185 34.46 29.2185 33.5768C29.2185 33.0591 29.4902 32.7894 30.0059 32.7894C30.4173 32.7795 30.8307 32.7795 31.2421 32.7756C31.2559 32.7756 31.2677 32.7618 31.3327 32.7205C31.3327 32.2303 31.3327 31.7047 31.3327 31.1791C31.3327 30.5728 31.5866 30.315 32.1831 30.313C33.0243 30.313 33.8642 30.313 34.7028 30.313C35.3268 30.313 35.5709 30.5669 35.5728 31.2067C35.5728 31.7185 35.5728 32.2303 35.5728 32.7815C36.0354 32.7815 36.4587 32.7815 36.8819 32.7815C37.4252 32.7815 37.6909 33.0531 37.6929 33.5984C37.6929 34.4685 37.6929 35.3379 37.6929 36.2067C37.6929 36.75 37.4213 37.0138 36.876 37.0197C36.4646 37.0197 36.0532 37.0197 35.5728 37.0197V37.502C35.5728 38.8143 35.5728 40.1266 35.5728 41.439C35.5728 42.0748 35.3228 42.3268 34.6969 42.3287C33.8858 42.3287 33.0768 42.3287 32.2657 42.3287C31.5709 42.3287 31.3327 42.0945 31.3327 41.4114C31.3366 39.9705 31.3386 38.5276 31.3386 37.0256ZM30.6476 35.6142H31.8701C32.498 35.6142 32.748 35.8661 32.748 36.498C32.748 37.8104 32.748 39.1227 32.748 40.435V40.8878H34.1614C34.1614 39.3799 34.1614 37.9075 34.1614 36.435C34.1614 35.8878 34.4291 35.626 34.9724 35.6181C35.3957 35.6181 35.8189 35.6181 36.2539 35.6181V34.1988H35.0413C34.4114 34.1988 34.1634 33.9468 34.1595 33.3189C34.1595 32.7953 34.1595 32.2697 34.1595 31.7598H32.7421C32.7421 32.3248 32.7421 32.8543 32.7421 33.3839C32.7421 33.9134 32.4705 34.1909 31.9272 34.1988C31.5039 34.1988 31.0807 34.1988 30.6417 34.1988L30.6476 35.6142Z" fill="#396DFD"/>
<path d="M20.5413 34.9055H26.9882C27.1054 34.8956 27.2233 34.8956 27.3406 34.9055C27.5115 34.9202 27.6708 34.9982 27.7873 35.1242C27.9038 35.2501 27.9691 35.415 27.9705 35.5866C27.9757 35.7654 27.9123 35.9394 27.7934 36.073C27.6744 36.2066 27.5089 36.2896 27.3307 36.3051C27.2429 36.311 27.1548 36.311 27.0669 36.3051H14.0413C13.9685 36.3051 13.8937 36.3051 13.8209 36.3051C13.6345 36.3025 13.4566 36.2264 13.3261 36.0933C13.1956 35.9602 13.123 35.7809 13.124 35.5945C13.1229 35.5019 13.1405 35.4101 13.1758 35.3245C13.2111 35.2389 13.2633 35.1614 13.3293 35.0965C13.3953 35.0316 13.4737 34.9807 13.5599 34.9468C13.6461 34.913 13.7382 34.8969 13.8307 34.8996C14.6181 34.8839 15.3898 34.8996 16.1693 34.8996L20.5413 34.9055Z" fill="#396DFD"/>
<path d="M20.5551 39.1476C18.376 39.1476 16.1969 39.1594 14.0197 39.1339C13.7357 39.1268 13.4647 39.0137 13.2598 38.8169C12.9331 38.4547 13.1909 37.8661 13.6752 37.752C13.7623 37.7369 13.8507 37.7316 13.939 37.7362C18.3406 37.7362 22.7415 37.7362 27.1417 37.7362C27.4783 37.7362 27.7972 37.815 27.8839 38.1555C27.9169 38.276 27.9251 38.402 27.9082 38.5258C27.8913 38.6496 27.8495 38.7687 27.7854 38.876C27.5952 39.0492 27.3458 39.1428 27.0886 39.1378C24.9095 39.1555 22.7323 39.1476 20.5551 39.1476Z" fill="#396DFD"/>
<path d="M20.5965 40.5669H27C27.1172 40.5561 27.2352 40.5561 27.3524 40.5669C27.5218 40.5875 27.6779 40.669 27.7916 40.7963C27.9053 40.9236 27.9688 41.0879 27.9703 41.2586C27.9717 41.4292 27.911 41.5946 27.7995 41.7238C27.688 41.853 27.5332 41.9371 27.3642 41.9606C27.2336 41.9765 27.1017 41.9798 26.9705 41.9704H14.1181C14.0157 41.9704 13.9114 41.9704 13.8091 41.9704C13.7168 41.9712 13.6252 41.9538 13.5397 41.9192C13.4541 41.8846 13.3762 41.8335 13.3104 41.7688C13.1775 41.6381 13.102 41.46 13.1004 41.2736C13.0988 41.0872 13.1714 40.9078 13.302 40.7749C13.4327 40.642 13.6109 40.5665 13.7972 40.5649C13.9134 40.5551 14.0335 40.5649 14.1496 40.5649L20.5965 40.5669Z" fill="#396DFD"/>
<path d="M25.4803 6.60433H19.6535C19.0984 6.60433 18.7776 6.33859 18.7835 5.89174C18.7894 5.44489 19.1063 5.19489 19.6673 5.19489H31.3228C31.8898 5.19489 32.2067 5.44292 32.2165 5.88386C32.2264 6.32481 31.8976 6.60433 31.3091 6.6063L25.4803 6.60433Z" fill="#396DFD"/>
<path d="M25.5 8.02167C27.4567 8.02167 29.4134 8.02167 31.3701 8.02167C31.7638 8.02167 32.063 8.15159 32.1929 8.54332C32.2193 8.63926 32.2251 8.73973 32.2098 8.83806C32.1945 8.9364 32.1585 9.03036 32.1041 9.11373C32.0498 9.19711 31.9784 9.26799 31.8946 9.32168C31.8108 9.37538 31.7166 9.41067 31.6181 9.42521C31.5156 9.43736 31.4122 9.44066 31.3091 9.43505C27.439 9.43505 23.5689 9.43505 19.6949 9.42521C19.4242 9.42872 19.1621 9.33035 18.9606 9.14962C18.8901 9.04751 18.8461 8.92941 18.8327 8.80601C18.8193 8.68261 18.8369 8.55781 18.8839 8.44293C18.966 8.33216 19.0704 8.23987 19.1905 8.17205C19.3105 8.10422 19.4435 8.06238 19.5807 8.04923C20.9331 8.01182 22.2874 8.03151 23.6417 8.03151L25.5 8.02167Z" fill="#396DFD"/>
<path d="M17.0079 33.4882C15.9921 33.4882 14.9783 33.4882 13.9646 33.4882C13.4429 33.4882 13.128 33.2205 13.124 32.7913C13.1201 32.3622 13.4331 32.0866 13.9488 32.0866C15.9921 32.0866 18.0354 32.0866 20.0787 32.0866C20.5905 32.0866 20.9075 32.372 20.8976 32.8031C20.8878 33.2342 20.5748 33.4941 20.0512 33.4941C19.0354 33.4902 18.0197 33.4882 17.0079 33.4882Z" fill="#396DFD"/>
</svg>
