<svg width="51" height="50" viewBox="0 0 51 50" fill="none" xmlns="http://www.w3.org/2000/svg">
<path d="M15.2638 19.004C14.8701 18.6103 14.4764 18.2382 14.0827 17.8504C13.3543 17.1063 13.3543 16.1536 14.0827 15.4173C14.6942 14.7979 15.3097 14.1864 15.9291 13.5827C16.6713 12.8504 17.6201 12.8445 18.3603 13.5827C18.754 13.9764 19.1339 14.3858 19.4547 14.7205C20.4587 14.3268 21.374 13.9784 22.2815 13.6043C22.3387 13.5637 22.386 13.5108 22.4201 13.4495C22.4541 13.3882 22.474 13.32 22.4784 13.25C22.504 12.7638 22.4784 12.2776 22.4921 11.7914C22.4877 11.5737 22.5278 11.3574 22.6098 11.1557C22.6919 10.954 22.8142 10.7712 22.9694 10.6184C23.1245 10.4656 23.3092 10.3462 23.5122 10.2672C23.7151 10.1883 23.932 10.1517 24.1496 10.1595C25.063 10.1595 25.9764 10.1496 26.8898 10.1595C27.1038 10.1558 27.3164 10.1951 27.515 10.2751C27.7136 10.3551 27.894 10.4742 28.0457 10.6253C28.1973 10.7764 28.3171 10.9565 28.3978 11.1547C28.4786 11.353 28.5187 11.5655 28.5158 11.7795C28.5256 12.2815 28.504 12.7835 28.5295 13.2835C28.5414 13.3529 28.5688 13.4186 28.6097 13.4759C28.6507 13.5332 28.704 13.5805 28.7658 13.6142C29.6575 13.9823 30.561 14.3288 31.5748 14.7264C31.8701 14.4114 32.2323 14.0059 32.6142 13.6221C33.4016 12.8347 34.3307 12.8347 35.1103 13.6221C35.7166 14.2231 36.3202 14.8274 36.9213 15.4351C37.6536 16.1752 37.6595 17.1201 36.9351 17.8681C36.5414 18.2618 36.1477 18.6555 35.8051 18.9921C36.1851 19.9646 36.5354 20.8819 36.9095 21.7874C36.9497 21.8441 37.002 21.8911 37.0626 21.9251C37.1232 21.9592 37.1905 21.9794 37.2599 21.9843C37.7599 22.0099 38.2618 21.9843 38.7618 21.998C39.181 21.998 39.5831 22.1634 39.881 22.4583C40.1788 22.7532 40.3482 23.1537 40.3524 23.5729C40.3701 24.5295 40.3681 25.4882 40.3524 26.4469C40.3488 26.8634 40.1817 27.2619 39.8872 27.5564C39.5926 27.851 39.1941 28.0181 38.7776 28.0217C38.2618 28.0374 37.7461 28.0217 37.2323 28.0414C37.1625 28.0521 37.0961 28.0786 37.0382 28.1189C36.9802 28.1591 36.9321 28.212 36.8977 28.2736C36.5295 29.1673 36.1831 30.0689 35.7874 31.0807C36.1043 31.378 36.5099 31.7402 36.8917 32.124C37.6673 32.9114 37.6654 33.8445 36.8917 34.6201C36.2907 35.229 35.687 35.8333 35.0807 36.4331C34.3406 37.1634 33.3917 37.1693 32.6477 36.4331C32.254 36.0394 31.874 35.628 31.5571 35.2953C30.5492 35.689 29.6339 36.0374 28.7284 36.4114C28.6709 36.4522 28.6233 36.5054 28.5892 36.5671C28.5551 36.6288 28.5354 36.6974 28.5315 36.7677C28.5079 37.252 28.5315 37.7382 28.5177 38.2244C28.522 38.4385 28.4832 38.6512 28.4036 38.8499C28.3241 39.0487 28.2054 39.2294 28.0547 39.3815C27.9039 39.5335 27.7242 39.6537 27.5261 39.7349C27.328 39.8161 27.1157 39.8568 26.9016 39.8543C25.9751 39.8635 25.0466 39.8635 24.1162 39.8543C23.9023 39.8575 23.6899 39.8177 23.4917 39.7374C23.2934 39.657 23.1134 39.5376 22.9621 39.3864C22.8108 39.2351 22.6915 39.055 22.6111 38.8568C22.5307 38.6585 22.4909 38.4462 22.4941 38.2323C22.4941 37.7323 22.5059 37.2303 22.4803 36.7303C22.4681 36.6611 22.4403 36.5955 22.399 36.5386C22.3578 36.4816 22.3041 36.4348 22.2421 36.4016C21.3504 36.0315 20.4469 35.687 19.439 35.2914C19.1398 35.6103 18.7776 36.0138 18.3937 36.3977C17.6063 37.1732 16.6752 37.1693 15.8977 36.3977C15.2914 35.7953 14.6877 35.1903 14.0866 34.5827C13.3543 33.8425 13.3484 32.8937 14.0866 32.1516C14.4803 31.7579 14.8917 31.3799 15.2244 31.063C14.8307 30.0669 14.4882 29.1634 14.1162 28.2736C14.0768 28.2079 14.0231 28.1519 13.959 28.11C13.8949 28.0681 13.8221 28.0412 13.7461 28.0315C13.248 28.002 12.7441 28.0315 12.2441 28.0138C12.0343 28.0115 11.827 27.9677 11.6342 27.8851C11.4413 27.8024 11.2667 27.6824 11.1204 27.5321C10.974 27.3817 10.8588 27.2039 10.7814 27.0089C10.704 26.8139 10.6659 26.6055 10.6693 26.3957C10.6601 25.4692 10.6601 24.5414 10.6693 23.6122C10.6664 23.3982 10.7065 23.1857 10.7872 22.9874C10.868 22.7891 10.9877 22.6091 11.1394 22.458C11.291 22.3069 11.4715 22.1878 11.6701 22.1078C11.8686 22.0278 12.0812 21.9884 12.2953 21.9921C12.7953 21.9921 13.2973 22.004 13.7973 21.9784C13.8662 21.9654 13.9314 21.937 13.988 21.8955C14.0445 21.8539 14.091 21.8002 14.124 21.7382C14.3209 21.2933 14.4449 20.8248 14.6319 20.378C14.8189 19.9311 15.0315 19.4882 15.2638 19.004ZM12.0689 24.9705C12.0689 25.3839 12.0689 25.7973 12.0689 26.2087C12.0689 26.4961 12.1752 26.6024 12.4626 26.6024C13.126 26.5906 13.7894 26.6024 14.4528 26.6024C15 26.6024 15.2264 26.7874 15.3504 27.313C15.6108 28.4444 16.0557 29.5251 16.6673 30.5118C16.9744 31.0059 16.9429 31.2776 16.5414 31.6929C16.0748 32.1654 15.6083 32.6378 15.1339 33.0984C14.937 33.2815 14.937 33.4351 15.1221 33.6221C15.7126 34.2008 16.3032 34.7835 16.8721 35.3721C17.0689 35.5689 17.2303 35.5689 17.4272 35.3603C17.8662 34.9055 18.3189 34.4626 18.7697 34.0158C19.2205 33.5689 19.4784 33.5197 20.0099 33.8524C20.9985 34.4644 22.0813 34.9093 23.2146 35.1693C23.7126 35.2854 23.9016 35.5236 23.9055 36.0433C23.9055 36.7067 23.9193 37.3701 23.9055 38.0315C23.9055 38.3386 24.0099 38.4508 24.3189 38.4449C25.1142 38.4291 25.9095 38.4291 26.7047 38.4449C27.0118 38.4449 27.124 38.3386 27.1181 38.0315C27.1024 37.3701 27.1083 36.7067 27.1181 36.0433C27.1181 35.5236 27.315 35.2835 27.8091 35.1693C28.9572 34.9082 30.0533 34.4557 31.0512 33.8307C31.5217 33.5414 31.8051 33.5709 32.1929 33.9528C32.6654 34.4173 33.1378 34.8839 33.5965 35.3603C33.7933 35.5571 33.9508 35.5768 34.1516 35.3721C34.7205 34.7933 35.2914 34.2205 35.8721 33.6555C36.0945 33.439 36.0807 33.2756 35.8721 33.065C35.4036 32.6162 34.9488 32.1536 34.4941 31.687C34.0886 31.2776 34.0571 31.0118 34.3662 30.5059C34.979 29.5168 35.4264 28.4343 35.691 27.3012C35.8169 26.7717 36.0394 26.5945 36.5886 26.5906C37.252 26.5906 37.9134 26.5807 38.5768 26.5906C38.8602 26.5906 38.9705 26.4862 38.9705 26.1969C38.9587 25.3858 38.9587 24.5748 38.9705 23.7638C38.9705 23.4803 38.8681 23.3701 38.5768 23.3701C37.8977 23.3819 37.2205 23.3799 36.5433 23.3701C36.0512 23.3701 35.7992 23.1732 35.6929 22.7028C35.4306 21.5392 34.9734 20.4284 34.3406 19.4173C34.0551 18.9567 34.0945 18.6791 34.4882 18.2795C34.9429 17.8189 35.3977 17.3563 35.8662 16.9016C36.0827 16.7047 36.1024 16.5315 35.8799 16.311C35.2894 15.7461 34.7264 15.1713 34.1575 14.5925C33.9606 14.3957 33.8032 14.3957 33.6043 14.5925C33.1457 15.0689 32.6732 15.5354 32.1988 16C31.8051 16.3819 31.5256 16.4134 31.061 16.124C30.0618 15.5002 28.9653 15.0477 27.8169 14.7854C27.3189 14.6713 27.128 14.4331 27.124 13.9134C27.124 13.25 27.1122 12.5866 27.124 11.9232C27.124 11.6221 27.0236 11.504 26.7126 11.5079C25.9173 11.5236 25.1221 11.5236 24.3268 11.5079C24.0197 11.5079 23.9055 11.6122 23.9114 11.9193C23.9272 12.5827 23.9114 13.2461 23.9114 13.9095C23.9114 14.4292 23.7146 14.6693 23.2225 14.7835C22.0847 15.0562 20.9999 15.5152 20.0118 16.1417C19.4843 16.4725 19.2244 16.4311 18.7697 15.9803C18.315 15.5295 17.8662 15.0886 17.4291 14.6319C17.2323 14.4351 17.0768 14.4134 16.876 14.6201C16.3091 15.1988 15.7362 15.7736 15.1536 16.3386C14.9311 16.5551 14.9469 16.7166 15.1654 16.9291C15.6339 17.378 16.0886 17.8406 16.5433 18.3071C16.9469 18.7166 16.9764 18.9882 16.6693 19.4882C16.0552 20.4713 15.607 21.5486 15.3425 22.6772C15.2185 23.2028 14.9882 23.3858 14.4429 23.3917C13.7795 23.3917 13.1181 23.3917 12.4547 23.3917C12.1693 23.3917 12.061 23.4921 12.061 23.7854C12.0788 24.1752 12.0689 24.5729 12.0689 24.9705Z" fill="#396DFD"/>
<path d="M45.2008 23.4449C44.9134 16.441 39.5256 7.21261 28.5591 5.39568L28.7441 4.01773C33.6319 4.80513 37.7992 6.97049 41.1634 10.6398C44.5276 14.3091 46.317 18.6575 46.687 23.5984C46.7402 23.5984 46.7776 23.6181 46.7874 23.5984C47.1811 23.1851 47.5177 23.1122 47.8603 23.3662C48.2028 23.6201 48.2303 24.002 47.9036 24.498C47.4981 25.1103 47.0945 25.7264 46.6792 26.3327C46.2855 26.9055 45.7618 26.9036 45.3681 26.3327C44.9744 25.7618 44.5965 25.1851 44.2146 24.6103C43.8327 24.0354 43.8209 23.7618 44.0866 23.4547C44.3524 23.1477 44.6299 23.1673 45.2008 23.4449Z" fill="#396DFD"/>
<path d="M22.4626 44.5807L22.2874 45.9016C14.9922 45.1929 5.08861 38.2697 4.31893 26.3307C4.20672 26.4331 4.12208 26.5276 4.03152 26.5905C3.9102 26.702 3.75142 26.7639 3.58664 26.7639C3.42186 26.7639 3.26309 26.702 3.14176 26.5905C3.004 26.4981 2.90858 26.3547 2.87646 26.1919C2.84435 26.0292 2.87817 25.8603 2.9705 25.7224C3.44294 24.9783 3.92523 24.2382 4.43507 23.5197C4.4951 23.425 4.57809 23.3469 4.67635 23.2929C4.77461 23.2388 4.88493 23.2105 4.99708 23.2105C5.10922 23.2105 5.21955 23.2388 5.3178 23.2929C5.41606 23.3469 5.49905 23.425 5.55908 23.5197C6.06302 24.2283 6.54334 24.9567 7.0079 25.685C7.09931 25.8135 7.14038 25.9711 7.12333 26.1278C7.10628 26.2846 7.03228 26.4296 6.91538 26.5354C6.81217 26.6542 6.66965 26.7319 6.51388 26.7543C6.35811 26.7767 6.19947 26.7424 6.06696 26.6575C5.99215 26.6161 5.92129 26.5689 5.84058 26.5197C5.98625 33.0295 11.1713 42.6516 22.4626 44.5807Z" fill="#396DFD"/>
<path d="M45.0847 28.0394L46.4784 28.2244C45.6713 33.0965 43.4902 37.25 39.8366 40.6043C36.1831 43.9587 31.8386 45.7815 26.8248 46.1752C26.9469 46.3031 27.0394 46.3839 27.1122 46.4783C27.2246 46.5992 27.287 46.7582 27.287 46.9232C27.287 47.0883 27.2246 47.2472 27.1122 47.3681C26.8918 47.624 26.5886 47.7362 26.2835 47.5433C25.5118 47.0571 24.7422 46.5591 24.0059 46.0315C23.5945 45.7323 23.6693 45.2028 24.13 44.8858C24.7953 44.4252 25.4725 43.9823 26.1457 43.5335C26.2818 43.4381 26.4471 43.3938 26.6127 43.4083C26.7782 43.4228 26.9333 43.4951 27.0508 43.6126C27.1683 43.7301 27.2406 43.8852 27.2551 44.0508C27.2696 44.2163 27.2253 44.3816 27.13 44.5177C27.0985 44.563 27.0689 44.6102 26.9803 44.7382C31.626 44.3228 35.6103 42.6024 38.9626 39.4961C42.315 36.3898 44.3327 32.5276 45.0847 28.0394Z" fill="#396DFD"/>
<path d="M9.23818 6.25197C9.23739 6.74195 9.09115 7.22065 8.81799 7.62743C8.54484 8.0342 8.15707 8.35071 7.70383 8.53686C7.25059 8.723 6.75229 8.7704 6.27208 8.67303C5.79188 8.57567 5.35139 8.33793 5.00645 7.98995C4.6615 7.64196 4.42764 7.19941 4.33449 6.71837C4.24135 6.23733 4.29311 5.73946 4.48323 5.28787C4.67334 4.83628 4.99325 4.4513 5.4024 4.18173C5.81155 3.91215 6.29153 3.77012 6.78149 3.77362C7.43519 3.77882 8.06032 4.04228 8.52054 4.50656C8.98075 4.97083 9.23872 5.59825 9.23818 6.25197ZM7.8248 6.23032C7.82168 6.02083 7.75662 5.81696 7.63781 5.64439C7.519 5.47183 7.35176 5.3383 7.15717 5.26065C6.96259 5.18299 6.74937 5.16468 6.54439 5.20802C6.33941 5.25137 6.15185 5.35442 6.00536 5.5042C5.85887 5.65398 5.76 5.84378 5.72121 6.04966C5.68242 6.25555 5.70546 6.46831 5.78741 6.66113C5.86936 6.85395 6.00657 7.01818 6.18172 7.13314C6.35688 7.24809 6.56215 7.30862 6.77165 7.30709C7.05311 7.30091 7.32096 7.18475 7.51782 6.98348C7.71467 6.78221 7.82487 6.51185 7.8248 6.23032Z" fill="#396DFD"/>
<path d="M41.7815 6.23425C41.7839 5.74436 41.9316 5.2662 42.206 4.86035C42.4803 4.4545 42.869 4.13923 43.3227 3.95447C43.7764 3.76972 44.2748 3.7238 44.7546 3.82254C45.2344 3.92127 45.6742 4.16022 46.0181 4.5091C46.362 4.85798 46.5946 5.3011 46.6864 5.7823C46.7783 6.2635 46.7252 6.76114 46.534 7.21215C46.3427 7.66317 46.0219 8.04727 45.6121 8.31578C45.2024 8.58429 44.7222 8.72514 44.2323 8.72047C43.5784 8.7132 42.9539 8.4478 42.4949 7.98211C42.0358 7.51641 41.7794 6.88816 41.7815 6.23425ZM45.3248 6.25984C45.3271 6.0506 45.2674 5.84537 45.1534 5.66994C45.0393 5.49452 44.8759 5.35674 44.6837 5.27393C44.4916 5.19112 44.2792 5.16698 44.0734 5.20455C43.8675 5.24212 43.6774 5.33971 43.5268 5.48506C43.3763 5.6304 43.2721 5.81702 43.2274 6.02142C43.1826 6.22583 43.1993 6.4389 43.2753 6.63385C43.3514 6.8288 43.4833 6.99691 43.6547 7.11705C43.826 7.23719 44.029 7.30399 44.2382 7.30905C44.5191 7.30866 44.7888 7.1989 44.9902 7.00305C45.1916 6.80719 45.3088 6.54062 45.3169 6.25984H45.3248Z" fill="#396DFD"/>
<path d="M6.75786 46.2107C6.26788 46.2095 5.78929 46.0628 5.38274 45.7894C4.97619 45.5159 4.65998 45.1279 4.4742 44.6745C4.28842 44.2211 4.24142 43.7227 4.33917 43.2426C4.43692 42.7625 4.67501 42.3222 5.02326 41.9775C5.37152 41.6329 5.81426 41.3994 6.29538 41.3066C6.77649 41.2138 7.27431 41.266 7.72575 41.4565C8.17719 41.6469 8.56191 41.9672 8.83116 42.3765C9.10041 42.7859 9.24207 43.266 9.23817 43.7559C9.23297 44.4098 8.96917 45.035 8.50442 45.495C8.03966 45.9549 7.41174 46.2122 6.75786 46.2107ZM6.73817 44.7992C6.94749 44.8045 7.1537 44.7478 7.33084 44.6361C7.50797 44.5245 7.64811 44.3629 7.73361 44.1718C7.8191 43.9806 7.84613 43.7685 7.81129 43.562C7.77645 43.3555 7.6813 43.164 7.53782 43.0115C7.39434 42.859 7.20894 42.7524 7.00497 42.705C6.80101 42.6577 6.5876 42.6717 6.39161 42.7454C6.19562 42.8191 6.02581 42.9492 5.90358 43.1192C5.78135 43.2892 5.71215 43.4916 5.70471 43.7008C5.69932 43.9826 5.80444 44.2553 5.99759 44.4606C6.19073 44.6659 6.45655 44.7875 6.73817 44.7992Z" fill="#396DFD"/>
<path d="M44.2756 46.2106C43.7856 46.2149 43.3054 46.0736 42.8959 45.8047C42.4863 45.5358 42.1658 45.1513 41.9749 44.7C41.7841 44.2488 41.7315 43.751 41.8239 43.2698C41.9163 42.7886 42.1495 42.3457 42.4938 41.9971C42.8382 41.6486 43.2783 41.4102 43.7584 41.312C44.2384 41.2139 44.7368 41.2605 45.1903 41.4459C45.6439 41.6313 46.0321 41.9472 46.306 42.3536C46.5798 42.7599 46.7268 43.2384 46.7283 43.7283C46.7305 44.3822 46.4737 45.0104 46.0141 45.4755C45.5545 45.9406 44.9295 46.2049 44.2756 46.2106ZM44.2461 44.7992C44.4555 44.8011 44.6608 44.741 44.8361 44.6265C45.0114 44.5119 45.1489 44.348 45.2313 44.1555C45.3136 43.9629 45.3372 43.7503 45.2989 43.5444C45.2606 43.3385 45.1623 43.1486 45.0163 42.9984C44.8703 42.8483 44.6831 42.7448 44.4783 42.7008C44.2736 42.6569 44.0604 42.6745 43.8656 42.7515C43.6709 42.8285 43.5033 42.9614 43.3839 43.1335C43.2645 43.3056 43.1988 43.5091 43.1949 43.7185C43.1943 44.0002 43.3039 44.271 43.5003 44.473C43.6968 44.6749 43.9644 44.792 44.2461 44.7992Z" fill="#396DFD"/>
<path d="M25.2835 4.47834C24.8681 4.19684 24.4961 3.94881 24.126 3.69093C23.7323 3.4055 23.6299 3.02558 23.8681 2.67125C24.1063 2.31692 24.4961 2.25786 24.9134 2.52952C25.5768 2.96062 26.2382 3.39763 26.8819 3.85038C27.4075 4.21652 27.4094 4.74015 26.8819 5.10629C26.2205 5.56692 25.5472 6.01377 24.8701 6.45078C24.4764 6.70078 24.0827 6.62401 23.8583 6.29133C23.6339 5.95865 23.7283 5.55117 24.122 5.26967C24.4902 5.00983 24.8661 4.7618 25.2835 4.47834Z" fill="#396DFD"/>
<path d="M22.3307 5.4311C22.1469 5.42019 21.9735 5.34186 21.8438 5.2111C21.7142 5.08034 21.6373 4.90635 21.6279 4.72244C21.6279 4.26771 22.0669 3.94685 22.6732 3.95866C22.7685 3.9589 22.8627 3.97813 22.9505 4.01524C23.0382 4.05235 23.1177 4.10658 23.1842 4.17477C23.2508 4.24295 23.303 4.32372 23.338 4.41235C23.3729 4.50098 23.3899 4.59569 23.3878 4.69094C23.376 5.15748 22.9567 5.45275 22.3307 5.4311Z" fill="#396DFD"/>
<path d="M6.92321 17.9961C6.94092 18.5138 6.52951 19.0433 6.11809 19.0591C5.93187 19.0597 5.75267 18.988 5.61827 18.8591C5.48387 18.7302 5.40476 18.5542 5.39762 18.3681C5.38187 17.8425 5.77163 17.3209 6.18502 17.3051C6.3722 17.307 6.55186 17.3791 6.68853 17.507C6.82519 17.6349 6.90893 17.8094 6.92321 17.9961Z" fill="#396DFD"/>
<path d="M20.2894 5.34646C20.2894 5.79725 19.7933 6.1693 19.2126 6.15552C19.0286 6.14352 18.856 6.062 18.7299 5.92748C18.6038 5.79295 18.5336 5.6155 18.5334 5.43111C18.5492 5.00197 19.0354 4.64371 19.5905 4.65355C19.775 4.65302 19.9522 4.72567 20.0832 4.85556C20.2142 4.98545 20.2883 5.16199 20.2894 5.34646Z" fill="#396DFD"/>
<path d="M14.561 8.09842C14.561 8.52755 14.0591 8.98031 13.5768 8.98818C13.485 8.98896 13.394 8.97165 13.3089 8.93725C13.2238 8.90285 13.1464 8.85203 13.0809 8.78768C13.0155 8.72334 12.9634 8.64674 12.9275 8.56225C12.8917 8.47776 12.8728 8.38704 12.8721 8.29527C12.8721 7.90157 13.4331 7.39763 13.8721 7.39763C13.9639 7.39625 14.0551 7.41352 14.1401 7.44841C14.2251 7.48329 14.3021 7.53505 14.3665 7.60056C14.431 7.66608 14.4814 7.74398 14.5148 7.82955C14.5483 7.91512 14.564 8.00659 14.561 8.09842Z" fill="#396DFD"/>
<path d="M8.22838 15.1024C8.23822 15.563 7.76775 16.1299 7.37405 16.1378C7.18848 16.1357 7.01113 16.061 6.88009 15.9296C6.74906 15.7982 6.67479 15.6206 6.67326 15.435C6.66342 14.9488 7.10239 14.4114 7.51578 14.4055C7.70117 14.4084 7.8784 14.4823 8.01097 14.6119C8.14353 14.7416 8.22134 14.9171 8.22838 15.1024Z" fill="#396DFD"/>
<path d="M9.05903 13.4232C8.96716 13.427 8.87549 13.4119 8.78966 13.3789C8.70384 13.3459 8.62569 13.2957 8.56003 13.2313C8.49437 13.1669 8.44259 13.0898 8.40788 13.0046C8.37318 12.9195 8.35629 12.8281 8.35825 12.7362C8.35825 12.309 8.87399 11.752 9.2677 11.752C9.35979 11.7522 9.45091 11.7708 9.53577 11.8065C9.62062 11.8423 9.69752 11.8946 9.762 11.9603C9.82647 12.0261 9.87723 12.104 9.91133 12.1896C9.94542 12.2751 9.96217 12.3666 9.96061 12.4586C9.96258 12.9193 9.49604 13.4212 9.05903 13.4232Z" fill="#396DFD"/>
<path d="M16.2834 7.34842C16.1071 7.34213 15.9395 7.2695 15.8144 7.14506C15.6892 7.02061 15.6156 6.85352 15.6082 6.67716C15.5964 6.24015 16.0689 5.82086 16.5925 5.80511C16.6838 5.80007 16.7752 5.81351 16.8611 5.84463C16.9471 5.87575 17.0259 5.92391 17.0928 5.98623C17.1597 6.04854 17.2134 6.12373 17.2505 6.20728C17.2877 6.29082 17.3076 6.38101 17.309 6.47244C17.3248 6.93307 16.8484 7.33858 16.2834 7.34842Z" fill="#396DFD"/>
<path d="M11.1043 11.0236C11.0165 11.0219 10.9299 11.0027 10.8496 10.9672C10.7693 10.9317 10.6968 10.8806 10.6364 10.8169C10.5759 10.7531 10.5288 10.678 10.4976 10.5959C10.4664 10.5138 10.4518 10.4264 10.4547 10.3386C10.4818 10.0983 10.5903 9.87447 10.7622 9.70437C10.9341 9.53426 11.159 9.42811 11.3996 9.40356C11.4912 9.39947 11.5826 9.41429 11.6683 9.44712C11.7539 9.47994 11.8318 9.53005 11.8972 9.59433C11.9626 9.65861 12.014 9.73567 12.0483 9.82071C12.0826 9.90575 12.099 9.99694 12.0964 10.0886C12.0984 10.5473 11.5787 11.0374 11.1043 11.0236Z" fill="#396DFD"/>
<path d="M4.63387 21.3012C4.68112 20.6575 4.96655 20.3445 5.45868 20.3937C5.87403 20.4331 6.13191 20.7677 6.04923 21.2461C6.00789 21.498 6.09057 21.9094 5.65553 21.9016C4.69884 21.8839 4.58466 21.7992 4.63387 21.3012Z" fill="#396DFD"/>
<path d="M31.874 24.9823C31.876 26.2424 31.5038 27.4748 30.8046 28.5231C30.1054 29.5715 29.1108 30.3888 27.9467 30.8712C26.7826 31.3537 25.5014 31.4798 24.2656 31.2334C23.0298 30.9871 21.8949 30.3794 21.0048 29.4873C20.1148 28.5953 19.5095 27.4591 19.2658 26.2228C19.0221 24.9864 19.151 23.7056 19.636 22.5425C20.121 21.3795 20.9404 20.3866 21.9903 19.6897C23.0402 18.9928 24.2734 18.6233 25.5335 18.6279C27.2148 18.6368 28.8245 19.3095 30.012 20.4997C31.1996 21.6898 31.8689 23.301 31.874 24.9823ZM25.5295 29.9449C26.5077 29.941 27.4627 29.6476 28.2743 29.1016C29.0859 28.5556 29.7177 27.7816 30.0899 26.877C30.4622 25.9725 30.5582 24.978 30.366 24.0189C30.1738 23.0599 29.7019 22.1792 29.0099 21.4879C28.3178 20.7967 27.4366 20.3259 26.4773 20.1348C25.518 19.9437 24.5236 20.041 23.6195 20.4143C22.7154 20.7877 21.9421 21.4203 21.3971 22.2326C20.8521 23.0448 20.5598 24.0002 20.5571 24.9783C20.5568 25.6311 20.6853 26.2775 20.9352 26.8806C21.1851 27.4837 21.5514 28.0316 22.0133 28.4929C22.4751 28.9542 23.0234 29.3199 23.6268 29.569C24.2302 29.8182 24.8768 29.9459 25.5295 29.9449Z" fill="#396DFD"/>
</svg>
