<svg width="51" height="50" viewBox="0 0 51 50" fill="none" xmlns="http://www.w3.org/2000/svg">
<path d="M42.7933 4.08859C43.8602 3.57875 44.8878 3.4882 45.8937 4.08859C46.525 4.45658 46.9988 5.04392 47.225 5.73872C47.4511 6.43353 47.4138 7.18725 47.1201 7.85631C46.2638 9.98032 45.3819 12.0906 44.5079 14.2047C44.4311 14.4016 44.3484 14.5787 44.2717 14.7677C43.7992 15.9272 43.1457 17.0532 42.9075 18.2579C42.6693 19.4626 42.8504 20.7323 42.8504 21.9725V45.0787C42.8504 46.7736 41.9902 47.6378 40.313 47.6378H6.19095C4.50591 47.6378 3.6319 46.7717 3.6319 45.0925V4.87402C3.6319 3.25591 4.51379 2.37402 6.13387 2.37402C17.4764 2.37402 28.8189 2.37009 40.1614 2.36221C41.4449 2.36221 42.3563 2.79528 42.7933 4.08859ZM6.6752 31.0433H30.4213C30.5621 31.0542 30.7036 31.0542 30.8445 31.0433C30.8873 31.0383 30.9285 31.0244 30.9655 31.0023C31.0025 30.9803 31.0343 30.9506 31.0591 30.9154C31.2559 30.4764 31.4154 30.0295 31.6181 29.5158H6.68111V28.0335H31.7224C31.8474 28.0473 31.9735 28.0473 32.0984 28.0335C32.1996 28.0179 32.2906 27.9635 32.3524 27.8819C32.5374 27.4547 32.6969 27.0177 32.8898 26.5256H17.2441V25.0256H33.4803C33.5571 24.8642 33.628 24.7264 33.687 24.5827C34.6765 22.1955 35.6608 19.8064 36.6398 17.4154C36.7477 17.1577 36.8051 16.8817 36.8091 16.6024C36.8209 12.7205 36.8091 8.83859 36.8091 4.9567C36.8091 4.1004 36.6122 3.89568 35.7658 3.89568C25.9009 3.89568 16.0354 3.89568 6.1693 3.89568C5.34253 3.89568 5.12993 4.10237 5.12993 4.91339V45.1299C5.12993 45.937 5.34646 46.1476 6.17127 46.1476H35.7795C36.6043 46.1476 36.8209 45.937 36.8209 45.1299V32.9252C36.6588 33.265 36.4747 33.5938 36.2697 33.9095C34.6102 36.0748 32.937 38.2402 31.2697 40.4055C30.9961 40.7598 30.6791 41.0492 30.1969 40.8563C29.7146 40.6634 29.6949 40.2658 29.752 39.8307C29.9567 38.2913 30.1608 36.752 30.3642 35.2126C30.4784 34.3465 30.5886 33.4803 30.7067 32.561H6.6752V31.0433ZM41.8721 8.93308C38.8681 16.1536 35.8898 23.3189 32.8976 30.5118L35.691 31.6378C38.689 24.4095 41.6732 17.252 44.6634 10.0669L41.8721 8.93308ZM38.3287 46.1378C38.9665 46.1378 39.6713 46.1378 40.376 46.1378C41.1221 46.1378 41.3484 45.9055 41.3484 45.1536C41.3484 37.5919 41.3484 30.0315 41.3484 22.4725C41.3484 22.3445 41.3327 22.2165 41.3169 21.9744C41.2185 22.189 41.1732 22.2835 41.1319 22.3819C40.2598 24.4961 39.3799 26.6083 38.5236 28.7284C38.4037 29.0312 38.3403 29.3534 38.3366 29.6791C38.3261 34.6148 38.3261 39.5499 38.3366 44.4843L38.3287 46.1378ZM38.2953 13.0866H38.4213C39.2697 11.0512 40.0847 9.00001 40.9803 6.98426C41.3307 6.19686 41.374 5.40946 41.3406 4.60434C41.3268 4.18702 41.0965 3.89961 40.6811 3.88387C39.8681 3.85434 39.0532 3.88387 38.2913 3.88387L38.2953 13.0866ZM45.185 8.6319C45.4266 8.13559 45.6421 7.62703 45.8307 7.10828C45.9257 6.76405 45.8958 6.39732 45.7463 6.07304C45.5967 5.74877 45.3373 5.48789 45.0138 5.33662C44.3543 5.01969 43.6122 5.13977 43.2421 5.71261C42.919 6.28599 42.6291 6.87752 42.374 7.48426L45.185 8.6319ZM31.7126 37.0256L31.8169 37.0689L35.0847 33L32.2933 31.8721C32.0965 33.628 31.9055 35.3268 31.7126 37.0256Z" fill="#396DFD"/>
<path d="M15.6319 12.9331C14.5984 12.9331 13.6417 12.9331 12.6791 12.9331C12.549 12.9172 12.4293 12.8542 12.3425 12.7559C11.7914 12.1654 11.126 12.0256 10.4764 12.3622C10.1897 12.5127 9.95867 12.7509 9.81701 13.042C9.67535 13.3331 9.63049 13.6619 9.68899 13.9803C9.76555 14.3278 9.95897 14.6385 10.237 14.8607C10.515 15.0828 10.8607 15.2028 11.2165 15.2008C13.8347 15.2854 15.7933 17.3071 15.6851 19.9055C15.6102 21.6772 14.7008 22.9882 13.1024 23.7618C12.9585 23.8087 12.8361 23.9055 12.7574 24.0348C12.6787 24.164 12.6489 24.3172 12.6732 24.4665C12.7008 25.124 12.6732 25.7835 12.6732 26.4783H9.67127C9.67127 25.7815 9.65356 25.0807 9.67127 24.3799C9.69015 24.2522 9.66205 24.1219 9.59218 24.0133C9.52231 23.9047 9.41543 23.8252 9.29135 23.7894C7.876 23.1496 7.06301 22.0315 6.71458 20.4843C7.74214 20.4843 8.71261 20.4843 9.68505 20.4843C9.81517 20.5085 9.93241 20.5783 10.0158 20.6811C10.5394 21.2441 11.1969 21.3898 11.8445 21.0748C12.141 20.9246 12.3801 20.6814 12.5251 20.3824C12.6702 20.0834 12.7132 19.7451 12.6477 19.4193C12.5699 19.0803 12.3798 18.7775 12.1082 18.5602C11.8366 18.3429 11.4994 18.2239 11.1516 18.2224C8.93308 18.1516 7.16537 16.7047 6.74411 14.6161C6.32285 12.5276 7.33466 10.5374 9.34647 9.61024C9.45474 9.57351 9.54644 9.4995 9.60521 9.40143C9.66398 9.30336 9.686 9.1876 9.66734 9.07481C9.65356 8.37205 9.66734 7.66733 9.66734 6.93701H12.6791C12.6791 7.62205 12.6949 8.31496 12.6791 9.01969C12.6576 9.15428 12.6857 9.29211 12.7581 9.40759C12.8305 9.52307 12.9423 9.60836 13.0728 9.64764C14.4764 10.2697 15.2776 11.3878 15.6319 12.9331Z" fill="#396DFD"/>
<path d="M27.7461 34.0945V35.5413H6.68307V34.0945H27.7461Z" fill="#396DFD"/>
<path d="M17.2323 11.3898V9.94489H35.2834V11.3898H17.2323Z" fill="#396DFD"/>
<path d="M35.2775 17.437H17.2323V15.9862H35.2756L35.2775 17.437Z" fill="#396DFD"/>
<path d="M35.2874 19.0039V20.4547H17.25V19.0039H35.2874Z" fill="#396DFD"/>
<path d="M33.7874 6.93109V8.36613H17.252V6.93109H33.7874Z" fill="#396DFD"/>
<path d="M32.2716 12.9685V14.4173H17.2323V12.9685H32.2716Z" fill="#396DFD"/>
<path d="M32.2677 22.0197V23.4724H17.25V22.0197H32.2677Z" fill="#396DFD"/>
<path d="M35.2854 41.6378V43.0866H21.7756V41.6378H35.2854Z" fill="#396DFD"/>
</svg>
