<svg width="56" height="56" viewBox="0 0 56 56" fill="none" xmlns="http://www.w3.org/2000/svg">
<path d="M28 5.63308C33.1796 5.63308 38.3593 5.63308 43.5389 5.63308C47.5228 5.63308 50.3603 8.47718 50.3625 12.4677C50.3625 19.8668 50.3625 27.2658 50.3625 34.6649C50.3625 38.7524 47.5625 41.5745 43.4595 41.6076C41.5965 41.623 39.7336 41.634 37.8684 41.6076C36.1332 41.5789 34.892 42.3373 34.0476 43.8299C33.2032 45.3225 32.3654 46.7732 31.4989 48.2394C29.7969 51.1055 26.1789 51.1055 24.4901 48.2394C23.6302 46.7784 22.7807 45.3086 21.9414 43.8299C21.0948 42.3373 19.8469 41.6076 18.114 41.6142C15.841 41.6142 13.5569 41.6781 11.2992 41.4819C8.1619 41.2129 5.65292 38.3953 5.63969 35.2447C5.6103 27.4885 5.6103 19.7338 5.63969 11.9805C5.65513 8.53671 8.63591 5.66395 12.1282 5.65072C17.4306 5.61765 22.7197 5.63308 28 5.63308ZM28.0397 8.25671H12.5868C9.87497 8.25671 8.26552 9.87938 8.26552 12.6132C8.26552 19.9315 8.26552 27.2497 8.26552 34.5679C8.26552 37.3348 9.87938 38.9663 12.6353 38.9773C14.5005 38.9773 16.3635 38.9773 18.2287 38.9773C20.8743 38.9773 22.8454 40.1392 24.1814 42.4013C25.028 43.8388 25.8438 45.2961 26.686 46.7358C27.4334 48.0167 28.5887 48.0189 29.3317 46.7358C30.1636 45.3203 30.9852 43.899 31.7965 42.4718C33.1392 40.1282 35.1543 38.9443 37.8639 38.9685C39.7277 38.9788 41.5914 38.9788 43.4551 38.9685C46.1008 38.9509 47.7477 37.2951 47.7477 34.6428C47.7477 27.2702 47.7477 19.8976 47.7477 12.5251C47.7477 9.87938 46.1074 8.24568 43.4287 8.24568L28.0397 8.25671Z" fill="#396DFD"/>
<path d="M28.0309 12.675C33.1216 12.675 36.1487 17.9972 33.6882 22.7197C33.1351 23.7235 32.4123 24.6238 31.5518 25.3808C30.2488 26.5669 29.4331 27.9228 29.3162 29.691C29.2633 30.5112 28.6879 31.0844 27.9779 31.0668C27.2283 31.0491 26.6551 30.4054 26.7036 29.5565C26.7383 28.4317 27.0118 27.3271 27.5059 26.316C28 25.3049 28.7036 24.4104 29.5698 23.692C30.7096 22.7241 31.554 21.6085 31.845 20.1027C32.297 17.8583 30.8661 15.6536 28.6901 15.3361C26.2869 14.9943 24.2321 16.6148 24.0602 18.9849C23.9874 19.9969 23.4384 20.601 22.6513 20.5282C21.9304 20.4687 21.4409 19.8668 21.4321 19.04C21.399 15.6161 24.4526 12.6684 28.0309 12.675Z" fill="#396DFD"/>
<path d="M28 33.7323C28.1707 33.7264 28.3408 33.7547 28.5004 33.8157C28.6599 33.8766 28.8056 33.9688 28.9289 34.087C29.0522 34.2052 29.1506 34.3468 29.2182 34.5036C29.2859 34.6604 29.3215 34.8292 29.3228 35C29.3315 35.1765 29.3045 35.3529 29.2433 35.5186C29.1822 35.6844 29.0881 35.8361 28.9669 35.9646C28.8457 36.0931 28.6997 36.1958 28.5378 36.2666C28.3759 36.3373 28.2014 36.3746 28.0248 36.3762C27.8481 36.3779 27.6729 36.3438 27.5097 36.2761C27.3465 36.2083 27.1987 36.1083 27.0751 35.9821C26.9516 35.8558 26.8547 35.7059 26.7905 35.5413C26.7263 35.3767 26.696 35.2008 26.7014 35.0242C26.6987 34.8533 26.7305 34.6835 26.7949 34.5251C26.8593 34.3667 26.9549 34.2229 27.0762 34.1023C27.1974 33.9817 27.3417 33.8868 27.5004 33.8232C27.6591 33.7596 27.8291 33.7287 28 33.7323Z" fill="#396DFD"/>
</svg>
